M48
; DRILL file {KiCad (7.0.0)} date Wed Mar 29 15:29:04 2023
; FORMAT={-:-/ absolute / inch / decimal}
; #@! TF.CreationDate,2023-03-29T15:29:04+01:00
; #@! TF.GenerationSoftware,Kicad,Pcbnew,(7.0.0)
; #@! TF.FileFunction,Plated,1,2,PTH
FMAT,2
INCH
; #@! TA.AperFunction,Plated,PTH,ViaDrill
T1C0.0157
; #@! TA.AperFunction,Plated,PTH,ComponentDrill
T2C0.0197
; #@! TA.AperFunction,Plated,PTH,ComponentDrill
T3C0.0394
; #@! TA.AperFunction,Plated,PTH,ComponentDrill
T4C0.0512
%
G90
G05
T1
X0.6102Y-0.7283
X0.6299Y-0.374
X0.8445Y-0.1575
X0.868Y-0.452
X0.9055Y-0.7093
X0.9563Y-0.6709
X1.063Y-0.689
X1.2205Y-0.689
X1.3402Y-0.6677
X1.4764Y-0.7283
X1.5354Y-0.5315
T3
X0.1228Y-0.5874
X0.1228Y-0.6874
X0.1228Y-0.7874
X0.2228Y-0.5874
X0.2228Y-0.6874
X0.2228Y-0.7874
X0.4331Y-0.5709
X0.4331Y-0.6709
X0.4331Y-0.7709
X0.5331Y-0.6709
X1.5929Y-0.6677
X1.6929Y-0.5677
X1.6929Y-0.6677
X1.6929Y-0.7677
X1.9031Y-0.5874
X1.9031Y-0.6874
X1.9031Y-0.7874
X2.0031Y-0.5874
X2.0031Y-0.6874
X2.0031Y-0.7874
T4
X0.1612Y-0.315
X0.3112Y-0.315
T2
G00X0.6749Y-0.0996
M15
G01X0.6749Y-0.0602
M16
G05
G00X0.6749Y-0.2403
M15
G01X0.6749Y-0.2108
M16
G05
G00X1.0151Y-0.0996
M15
G01X1.0151Y-0.0602
M16
G05
G00X1.0151Y-0.2403
M15
G01X1.0151Y-0.2108
M16
G05
T0
M30
