%TF.GenerationSoftware,KiCad,Pcbnew,(7.0.0)*%
%TF.CreationDate,2023-03-29T15:29:01+01:00*%
%TF.ProjectId,MicroBBPS,4d696372-6f42-4425-9053-2e6b69636164,rev?*%
%TF.SameCoordinates,Original*%
%TF.FileFunction,Copper,L2,Bot*%
%TF.FilePolarity,Positive*%
%FSLAX46Y46*%
G04 Gerber Fmt 4.6, Leading zero omitted, Abs format (unit mm)*
G04 Created by KiCad (PCBNEW (7.0.0)) date 2023-03-29 15:29:01*
%MOMM*%
%LPD*%
G01*
G04 APERTURE LIST*
%TA.AperFunction,ComponentPad*%
%ADD10C,2.700000*%
%TD*%
%TA.AperFunction,ComponentPad*%
%ADD11R,1.700000X1.700000*%
%TD*%
%TA.AperFunction,ComponentPad*%
%ADD12O,1.700000X1.700000*%
%TD*%
%TA.AperFunction,ComponentPad*%
%ADD13O,1.000000X1.750000*%
%TD*%
%TA.AperFunction,ComponentPad*%
%ADD14O,1.000000X2.000000*%
%TD*%
%TA.AperFunction,ViaPad*%
%ADD15C,0.800000*%
%TD*%
%TA.AperFunction,Conductor*%
%ADD16C,0.200000*%
%TD*%
%TA.AperFunction,Conductor*%
%ADD17C,0.750000*%
%TD*%
%TA.AperFunction,Conductor*%
%ADD18C,0.500000*%
%TD*%
%TA.AperFunction,Profile*%
%ADD19C,0.050000*%
%TD*%
G04 APERTURE END LIST*
D10*
%TO.P,J5,1,Pin_1*%
%TO.N,Net-(D2-A)*%
X7905000Y-8000000D03*
%TO.P,J5,2,Pin_2*%
%TO.N,GND*%
X4095000Y-8000000D03*
%TD*%
D11*
%TO.P,J8,1*%
%TO.N,+3.3V*%
X42999999Y-19499999D03*
D12*
%TO.P,J8,2*%
%TO.N,VoutRight*%
X42999999Y-16959999D03*
%TO.P,J8,3*%
%TO.N,+5V*%
X42999999Y-14419999D03*
%TO.P,J8,4*%
%TO.N,VS*%
X40459999Y-16959999D03*
%TD*%
D11*
%TO.P,J9,1*%
%TO.N,+5V*%
X10999999Y-14499999D03*
D12*
%TO.P,J9,2*%
%TO.N,VoutLeft*%
X10999999Y-17039999D03*
%TO.P,J9,3*%
%TO.N,+3.3V*%
X10999999Y-19579999D03*
%TO.P,J9,4*%
%TO.N,VS*%
X13539999Y-17039999D03*
%TD*%
D13*
%TO.P,J1,S1,SHIELD*%
%TO.N,GND*%
X25782999Y-5728999D03*
D14*
X25782999Y-2028999D03*
D13*
X17142999Y-5728999D03*
D14*
X17142999Y-2028999D03*
%TD*%
D11*
%TO.P,J3,1,Pin_1*%
%TO.N,GND*%
X3119999Y-19999999D03*
D12*
%TO.P,J3,2,Pin_2*%
%TO.N,VoutLeft*%
X5659999Y-19999999D03*
%TO.P,J3,3,Pin_3*%
%TO.N,GND*%
X3119999Y-17459999D03*
%TO.P,J3,4,Pin_4*%
%TO.N,VoutLeft*%
X5659999Y-17459999D03*
%TO.P,J3,5,Pin_5*%
%TO.N,GND*%
X3119999Y-14919999D03*
%TO.P,J3,6,Pin_6*%
%TO.N,VoutLeft*%
X5659999Y-14919999D03*
%TD*%
D11*
%TO.P,J4,1,Pin_1*%
%TO.N,GND*%
X48339999Y-19999999D03*
D12*
%TO.P,J4,2,Pin_2*%
%TO.N,VoutRight*%
X50879999Y-19999999D03*
%TO.P,J4,3,Pin_3*%
%TO.N,GND*%
X48339999Y-17459999D03*
%TO.P,J4,4,Pin_4*%
%TO.N,VoutRight*%
X50879999Y-17459999D03*
%TO.P,J4,5,Pin_5*%
%TO.N,GND*%
X48339999Y-14919999D03*
%TO.P,J4,6,Pin_6*%
%TO.N,VoutRight*%
X50879999Y-14919999D03*
%TD*%
D15*
%TO.N,GND*%
X37500000Y-18500000D03*
X27000000Y-17500000D03*
X39000000Y-13500000D03*
X15500000Y-18500000D03*
%TO.N,VS*%
X16000000Y-9500000D03*
X34040000Y-16960000D03*
X24290000Y-17040000D03*
%TO.N,+5V*%
X21450000Y-4000000D03*
X31000000Y-17500000D03*
%TO.N,+3.3V*%
X23000000Y-18015000D03*
X22047200Y-11480800D03*
%TD*%
D16*
%TO.N,*%
X1000000Y0D02*
X0Y0D01*
X0Y0D02*
X0Y-1000000D01*
X0Y-1000000D02*
X1000000Y0D01*
D17*
%TO.N,VS*%
X34040000Y-16960000D02*
X32500000Y-18500000D01*
X13710000Y-17040000D02*
X13540000Y-17040000D01*
X16000000Y-14750000D02*
X13710000Y-17040000D01*
X32500000Y-18500000D02*
X25750000Y-18500000D01*
X25750000Y-18500000D02*
X24290000Y-17040000D01*
X16000000Y-9500000D02*
X16000000Y-14750000D01*
D18*
%TO.N,+5V*%
X31080000Y-14420000D02*
X43000000Y-14420000D01*
X31000000Y-14500000D02*
X31000000Y-17500000D01*
X31080000Y-14420000D02*
X31000000Y-14500000D01*
D17*
X21450000Y-4950000D02*
X21450000Y-4000000D01*
X31000000Y-14500000D02*
X21450000Y-4950000D01*
%TO.N,+3.3V*%
X23000000Y-18015000D02*
X23000000Y-19410000D01*
X22830000Y-19580000D02*
X42920000Y-19580000D01*
X11000000Y-19580000D02*
X22830000Y-19580000D01*
X22047200Y-17062200D02*
X23000000Y-18015000D01*
X42920000Y-19580000D02*
X43000000Y-19500000D01*
X22047200Y-11480800D02*
X22047200Y-17062200D01*
X23000000Y-19410000D02*
X22830000Y-19580000D01*
%TD*%
%TA.AperFunction,Conductor*%
%TO.N,GND*%
G36*
X26798465Y-35091D02*
G01*
X26839342Y-62405D01*
X28787500Y-2010563D01*
X28791216Y-2015090D01*
X28791814Y-2015490D01*
X28793483Y-2019517D01*
X28798554Y-2021617D01*
X28798555Y-2021618D01*
X28813000Y-2027601D01*
X28817026Y-2025933D01*
X28817735Y-2026074D01*
X28823564Y-2025500D01*
X51937247Y-2025500D01*
X51985465Y-2035091D01*
X52026342Y-2062405D01*
X53935631Y-3971694D01*
X53962930Y-4012534D01*
X53972536Y-4060710D01*
X53974500Y-7201271D01*
X53974500Y-22937248D01*
X53964909Y-22985466D01*
X53937597Y-23026340D01*
X53026339Y-23937597D01*
X52985465Y-23964909D01*
X52937247Y-23974500D01*
X47062752Y-23974500D01*
X47014534Y-23964909D01*
X46973659Y-23937597D01*
X46025498Y-22989435D01*
X46021785Y-22984911D01*
X46021184Y-22984509D01*
X46019517Y-22980483D01*
X46014445Y-22978382D01*
X46000000Y-22972399D01*
X45995974Y-22974066D01*
X45995264Y-22973925D01*
X45989436Y-22974500D01*
X8010569Y-22974500D01*
X8004733Y-22973925D01*
X8004025Y-22974065D01*
X8000000Y-22972398D01*
X7987545Y-22977557D01*
X7980483Y-22980483D01*
X7978816Y-22984506D01*
X7978216Y-22984907D01*
X7974499Y-22989438D01*
X7026339Y-23937597D01*
X6985465Y-23964909D01*
X6937247Y-23974500D01*
X1062752Y-23974500D01*
X1014534Y-23964909D01*
X973659Y-23937597D01*
X62402Y-23026339D01*
X35091Y-22985465D01*
X25500Y-22937247D01*
X25500Y-20895223D01*
X1762000Y-20895223D01*
X1762359Y-20901938D01*
X1767662Y-20951257D01*
X1771259Y-20966478D01*
X1816405Y-21087519D01*
X1824954Y-21103175D01*
X1901697Y-21205692D01*
X1914307Y-21218302D01*
X2016824Y-21295045D01*
X2032480Y-21303594D01*
X2153521Y-21348740D01*
X2168742Y-21352337D01*
X2218061Y-21357640D01*
X2224777Y-21358000D01*
X2849410Y-21358000D01*
X2862493Y-21354493D01*
X2866000Y-21341410D01*
X3374000Y-21341410D01*
X3377506Y-21354493D01*
X3390590Y-21358000D01*
X4015223Y-21358000D01*
X4021938Y-21357640D01*
X4071257Y-21352337D01*
X4086478Y-21348740D01*
X4207519Y-21303594D01*
X4223175Y-21295045D01*
X4325692Y-21218302D01*
X4338302Y-21205692D01*
X4415045Y-21103175D01*
X4423594Y-21087519D01*
X4468740Y-20966478D01*
X4472337Y-20951257D01*
X4477640Y-20901938D01*
X4478000Y-20895223D01*
X4478000Y-20630883D01*
X4495665Y-20566544D01*
X4543707Y-20520245D01*
X4608655Y-20504969D01*
X4672298Y-20524999D01*
X4714265Y-20571896D01*
X4714662Y-20571651D01*
X4716046Y-20573887D01*
X4716790Y-20574718D01*
X4720327Y-20581821D01*
X4723835Y-20586467D01*
X4723838Y-20586471D01*
X4839723Y-20739928D01*
X4839727Y-20739932D01*
X4843236Y-20744579D01*
X4847538Y-20748501D01*
X4847541Y-20748504D01*
X4934684Y-20827945D01*
X4993959Y-20881981D01*
X5167363Y-20989348D01*
X5357544Y-21063024D01*
X5558024Y-21100500D01*
X5756148Y-21100500D01*
X5761976Y-21100500D01*
X5962456Y-21063024D01*
X6152637Y-20989348D01*
X6304654Y-20895223D01*
X46982000Y-20895223D01*
X46982359Y-20901938D01*
X46987662Y-20951257D01*
X46991259Y-20966478D01*
X47036405Y-21087519D01*
X47044954Y-21103175D01*
X47121697Y-21205692D01*
X47134307Y-21218302D01*
X47236824Y-21295045D01*
X47252480Y-21303594D01*
X47373521Y-21348740D01*
X47388742Y-21352337D01*
X47438061Y-21357640D01*
X47444777Y-21358000D01*
X48069410Y-21358000D01*
X48082493Y-21354493D01*
X48086000Y-21341410D01*
X48594000Y-21341410D01*
X48597506Y-21354493D01*
X48610590Y-21358000D01*
X49235223Y-21358000D01*
X49241938Y-21357640D01*
X49291257Y-21352337D01*
X49306478Y-21348740D01*
X49427519Y-21303594D01*
X49443175Y-21295045D01*
X49545692Y-21218302D01*
X49558302Y-21205692D01*
X49635045Y-21103175D01*
X49643594Y-21087519D01*
X49688740Y-20966478D01*
X49692337Y-20951257D01*
X49697640Y-20901938D01*
X49698000Y-20895223D01*
X49698000Y-20630883D01*
X49715665Y-20566544D01*
X49763707Y-20520245D01*
X49828655Y-20504969D01*
X49892298Y-20524999D01*
X49934265Y-20571896D01*
X49934662Y-20571651D01*
X49936046Y-20573887D01*
X49936790Y-20574718D01*
X49940327Y-20581821D01*
X49943835Y-20586467D01*
X49943838Y-20586471D01*
X50059723Y-20739928D01*
X50059727Y-20739932D01*
X50063236Y-20744579D01*
X50067538Y-20748501D01*
X50067541Y-20748504D01*
X50154684Y-20827945D01*
X50213959Y-20881981D01*
X50387363Y-20989348D01*
X50577544Y-21063024D01*
X50778024Y-21100500D01*
X50976148Y-21100500D01*
X50981976Y-21100500D01*
X51182456Y-21063024D01*
X51372637Y-20989348D01*
X51546041Y-20881981D01*
X51696764Y-20744579D01*
X51819673Y-20581821D01*
X51910582Y-20399250D01*
X51966397Y-20203083D01*
X51985215Y-20000000D01*
X51966397Y-19796917D01*
X51910582Y-19600750D01*
X51903135Y-19585795D01*
X51864774Y-19508754D01*
X51819673Y-19418179D01*
X51792889Y-19382711D01*
X51700276Y-19260071D01*
X51700273Y-19260067D01*
X51696764Y-19255421D01*
X51692461Y-19251498D01*
X51692458Y-19251495D01*
X51550343Y-19121941D01*
X51546041Y-19118019D01*
X51409572Y-19033521D01*
X51377596Y-19013722D01*
X51377592Y-19013720D01*
X51372637Y-19010652D01*
X51367206Y-19008548D01*
X51367202Y-19008546D01*
X51187882Y-18939078D01*
X51187881Y-18939077D01*
X51182456Y-18936976D01*
X51176737Y-18935907D01*
X51176734Y-18935906D01*
X50987702Y-18900570D01*
X50987698Y-18900569D01*
X50981976Y-18899500D01*
X50778024Y-18899500D01*
X50772302Y-18900569D01*
X50772297Y-18900570D01*
X50583265Y-18935906D01*
X50583259Y-18935907D01*
X50577544Y-18936976D01*
X50572121Y-18939076D01*
X50572117Y-18939078D01*
X50392797Y-19008546D01*
X50392789Y-19008549D01*
X50387363Y-19010652D01*
X50382412Y-19013717D01*
X50382403Y-19013722D01*
X50218912Y-19114952D01*
X50213959Y-19118019D01*
X50209660Y-19121937D01*
X50209656Y-19121941D01*
X50067541Y-19251495D01*
X50067533Y-19251503D01*
X50063236Y-19255421D01*
X50059731Y-19260061D01*
X50059723Y-19260071D01*
X49943838Y-19413528D01*
X49943832Y-19413537D01*
X49940327Y-19418179D01*
X49937731Y-19423391D01*
X49937730Y-19423394D01*
X49936790Y-19425282D01*
X49936046Y-19426112D01*
X49934662Y-19428349D01*
X49934265Y-19428103D01*
X49892298Y-19475001D01*
X49828655Y-19495031D01*
X49763707Y-19479755D01*
X49715665Y-19433456D01*
X49698000Y-19369117D01*
X49698000Y-19104777D01*
X49697640Y-19098061D01*
X49692337Y-19048742D01*
X49688740Y-19033521D01*
X49643594Y-18912480D01*
X49635045Y-18896824D01*
X49558302Y-18794307D01*
X49545692Y-18781697D01*
X49443175Y-18704954D01*
X49427521Y-18696406D01*
X49320320Y-18656422D01*
X49269986Y-18621858D01*
X49241812Y-18567688D01*
X49242415Y-18506632D01*
X49271652Y-18453028D01*
X49411794Y-18300792D01*
X49418177Y-18292593D01*
X49535568Y-18112913D01*
X49540511Y-18103778D01*
X49626725Y-17907232D01*
X49629592Y-17898882D01*
X49661022Y-17849365D01*
X49711464Y-17819440D01*
X49769987Y-17815592D01*
X49823913Y-17838654D01*
X49861557Y-17883629D01*
X49931499Y-18024093D01*
X49940327Y-18041821D01*
X49943835Y-18046467D01*
X49943838Y-18046471D01*
X50059723Y-18199928D01*
X50059727Y-18199932D01*
X50063236Y-18204579D01*
X50067538Y-18208501D01*
X50067541Y-18208504D01*
X50083683Y-18223219D01*
X50213959Y-18341981D01*
X50387363Y-18449348D01*
X50577544Y-18523024D01*
X50778024Y-18560500D01*
X50976148Y-18560500D01*
X50981976Y-18560500D01*
X51182456Y-18523024D01*
X51372637Y-18449348D01*
X51546041Y-18341981D01*
X51696764Y-18204579D01*
X51819673Y-18041821D01*
X51910582Y-17859250D01*
X51966397Y-17663083D01*
X51985215Y-17460000D01*
X51966397Y-17256917D01*
X51910582Y-17060750D01*
X51903138Y-17045801D01*
X51856646Y-16952431D01*
X51819673Y-16878179D01*
X51792889Y-16842711D01*
X51700276Y-16720071D01*
X51700273Y-16720067D01*
X51696764Y-16715421D01*
X51692461Y-16711498D01*
X51692458Y-16711495D01*
X51589228Y-16617389D01*
X51546041Y-16578019D01*
X51421194Y-16500717D01*
X51377596Y-16473722D01*
X51377592Y-16473720D01*
X51372637Y-16470652D01*
X51367206Y-16468548D01*
X51367202Y-16468546D01*
X51187882Y-16399078D01*
X51187881Y-16399077D01*
X51182456Y-16396976D01*
X51176737Y-16395907D01*
X51176734Y-16395906D01*
X50987702Y-16360570D01*
X50987698Y-16360569D01*
X50981976Y-16359500D01*
X50778024Y-16359500D01*
X50772302Y-16360569D01*
X50772297Y-16360570D01*
X50583265Y-16395906D01*
X50583259Y-16395907D01*
X50577544Y-16396976D01*
X50572121Y-16399076D01*
X50572117Y-16399078D01*
X50392797Y-16468546D01*
X50392789Y-16468549D01*
X50387363Y-16470652D01*
X50382412Y-16473717D01*
X50382403Y-16473722D01*
X50241849Y-16560750D01*
X50213959Y-16578019D01*
X50209660Y-16581937D01*
X50209656Y-16581941D01*
X50067541Y-16711495D01*
X50067533Y-16711503D01*
X50063236Y-16715421D01*
X50059731Y-16720061D01*
X50059723Y-16720071D01*
X49943838Y-16873528D01*
X49943832Y-16873537D01*
X49940327Y-16878179D01*
X49937733Y-16883386D01*
X49937730Y-16883393D01*
X49861557Y-17036370D01*
X49823913Y-17081345D01*
X49769988Y-17104407D01*
X49711465Y-17100559D01*
X49661024Y-17070636D01*
X49629593Y-17021119D01*
X49626727Y-17012771D01*
X49540511Y-16816221D01*
X49535568Y-16807086D01*
X49418177Y-16627406D01*
X49411789Y-16619200D01*
X49266432Y-16461299D01*
X49258788Y-16454262D01*
X49089411Y-16322431D01*
X49080718Y-16316752D01*
X49051267Y-16300814D01*
X49002995Y-16254498D01*
X48985236Y-16190000D01*
X49002995Y-16125502D01*
X49051267Y-16079186D01*
X49080718Y-16063247D01*
X49089411Y-16057568D01*
X49258788Y-15925737D01*
X49266432Y-15918700D01*
X49411789Y-15760799D01*
X49418177Y-15752593D01*
X49535568Y-15572913D01*
X49540511Y-15563778D01*
X49626725Y-15367232D01*
X49629592Y-15358882D01*
X49661022Y-15309365D01*
X49711464Y-15279440D01*
X49769987Y-15275592D01*
X49823913Y-15298654D01*
X49861557Y-15343629D01*
X49931499Y-15484093D01*
X49940327Y-15501821D01*
X49943835Y-15506467D01*
X49943838Y-15506471D01*
X50059723Y-15659928D01*
X50059727Y-15659932D01*
X50063236Y-15664579D01*
X50067538Y-15668501D01*
X50067541Y-15668504D01*
X50154684Y-15747945D01*
X50213959Y-15801981D01*
X50387363Y-15909348D01*
X50577544Y-15983024D01*
X50778024Y-16020500D01*
X50976148Y-16020500D01*
X50981976Y-16020500D01*
X51182456Y-15983024D01*
X51372637Y-15909348D01*
X51546041Y-15801981D01*
X51696764Y-15664579D01*
X51819673Y-15501821D01*
X51910582Y-15319250D01*
X51966397Y-15123083D01*
X51985215Y-14920000D01*
X51966397Y-14716917D01*
X51910582Y-14520750D01*
X51886691Y-14472771D01*
X51822269Y-14343393D01*
X51819673Y-14338179D01*
X51732476Y-14222711D01*
X51700276Y-14180071D01*
X51700273Y-14180067D01*
X51696764Y-14175421D01*
X51692461Y-14171498D01*
X51692458Y-14171495D01*
X51550343Y-14041941D01*
X51546041Y-14038019D01*
X51468478Y-13989994D01*
X51377596Y-13933722D01*
X51377592Y-13933720D01*
X51372637Y-13930652D01*
X51367206Y-13928548D01*
X51367202Y-13928546D01*
X51187882Y-13859078D01*
X51187881Y-13859077D01*
X51182456Y-13856976D01*
X51176737Y-13855907D01*
X51176734Y-13855906D01*
X50987702Y-13820570D01*
X50987698Y-13820569D01*
X50981976Y-13819500D01*
X50778024Y-13819500D01*
X50772302Y-13820569D01*
X50772297Y-13820570D01*
X50583265Y-13855906D01*
X50583259Y-13855907D01*
X50577544Y-13856976D01*
X50572121Y-13859076D01*
X50572117Y-13859078D01*
X50392797Y-13928546D01*
X50392789Y-13928549D01*
X50387363Y-13930652D01*
X50382412Y-13933717D01*
X50382403Y-13933722D01*
X50241849Y-14020750D01*
X50213959Y-14038019D01*
X50209660Y-14041937D01*
X50209656Y-14041941D01*
X50067541Y-14171495D01*
X50067533Y-14171503D01*
X50063236Y-14175421D01*
X50059731Y-14180061D01*
X50059723Y-14180071D01*
X49943838Y-14333528D01*
X49943832Y-14333537D01*
X49940327Y-14338179D01*
X49937733Y-14343386D01*
X49937730Y-14343393D01*
X49861557Y-14496370D01*
X49823913Y-14541345D01*
X49769988Y-14564407D01*
X49711465Y-14560559D01*
X49661024Y-14530636D01*
X49629593Y-14481119D01*
X49626727Y-14472771D01*
X49540511Y-14276221D01*
X49535568Y-14267086D01*
X49418177Y-14087406D01*
X49411789Y-14079200D01*
X49266432Y-13921299D01*
X49258788Y-13914262D01*
X49089411Y-13782431D01*
X49080718Y-13776752D01*
X48891957Y-13674599D01*
X48882440Y-13670424D01*
X48679442Y-13600735D01*
X48669372Y-13598185D01*
X48607538Y-13587867D01*
X48596401Y-13588443D01*
X48594000Y-13599336D01*
X48594000Y-21341410D01*
X48086000Y-21341410D01*
X48086000Y-20270590D01*
X48082493Y-20257506D01*
X48069410Y-20254000D01*
X46998590Y-20254000D01*
X46985506Y-20257506D01*
X46982000Y-20270590D01*
X46982000Y-20895223D01*
X6304654Y-20895223D01*
X6326041Y-20881981D01*
X6476764Y-20744579D01*
X6599673Y-20581821D01*
X6690582Y-20399250D01*
X6746397Y-20203083D01*
X6765215Y-20000000D01*
X6746397Y-19796917D01*
X6690582Y-19600750D01*
X6683135Y-19585795D01*
X6680249Y-19580000D01*
X9894785Y-19580000D01*
X9913603Y-19783083D01*
X9969418Y-19979250D01*
X9972009Y-19984454D01*
X9972012Y-19984461D01*
X10057730Y-20156606D01*
X10060327Y-20161821D01*
X10063835Y-20166467D01*
X10063838Y-20166471D01*
X10179723Y-20319928D01*
X10179727Y-20319932D01*
X10183236Y-20324579D01*
X10187538Y-20328501D01*
X10187541Y-20328504D01*
X10244843Y-20380741D01*
X10333959Y-20461981D01*
X10507363Y-20569348D01*
X10697544Y-20643024D01*
X10898024Y-20680500D01*
X11096148Y-20680500D01*
X11101976Y-20680500D01*
X11302456Y-20643024D01*
X11492637Y-20569348D01*
X11666041Y-20461981D01*
X11816764Y-20324579D01*
X11837440Y-20297199D01*
X11868879Y-20255568D01*
X11913266Y-20218709D01*
X11969429Y-20205500D01*
X22750981Y-20205500D01*
X22752297Y-20205500D01*
X22763256Y-20206016D01*
X22770667Y-20207673D01*
X22837841Y-20205561D01*
X22841799Y-20205500D01*
X22869350Y-20205500D01*
X41773500Y-20205500D01*
X41836500Y-20222381D01*
X41882619Y-20268500D01*
X41899500Y-20331500D01*
X41899500Y-20374674D01*
X41900705Y-20380732D01*
X41900706Y-20380741D01*
X41905425Y-20404461D01*
X41914034Y-20447740D01*
X41920926Y-20458055D01*
X41920927Y-20458057D01*
X41962479Y-20520245D01*
X41969399Y-20530601D01*
X41979714Y-20537493D01*
X42038251Y-20576606D01*
X42052260Y-20585966D01*
X42125326Y-20600500D01*
X43868487Y-20600500D01*
X43874674Y-20600500D01*
X43947740Y-20585966D01*
X44030601Y-20530601D01*
X44085966Y-20447740D01*
X44100500Y-20374674D01*
X44100500Y-19729410D01*
X46982000Y-19729410D01*
X46985506Y-19742493D01*
X46998590Y-19746000D01*
X48069410Y-19746000D01*
X48082493Y-19742493D01*
X48086000Y-19729410D01*
X48086000Y-17730590D01*
X48082493Y-17717506D01*
X48069410Y-17714000D01*
X47017840Y-17714000D01*
X47006751Y-17716565D01*
X47006986Y-17727943D01*
X47049900Y-17897408D01*
X47053270Y-17907223D01*
X47139488Y-18103778D01*
X47144431Y-18112913D01*
X47261822Y-18292593D01*
X47268210Y-18300799D01*
X47408347Y-18453029D01*
X47437584Y-18506632D01*
X47438187Y-18567688D01*
X47410013Y-18621858D01*
X47359679Y-18656421D01*
X47252484Y-18696403D01*
X47236824Y-18704954D01*
X47134307Y-18781697D01*
X47121697Y-18794307D01*
X47044954Y-18896824D01*
X47036405Y-18912480D01*
X46991259Y-19033521D01*
X46987662Y-19048742D01*
X46982359Y-19098061D01*
X46982000Y-19104777D01*
X46982000Y-19729410D01*
X44100500Y-19729410D01*
X44100500Y-18625326D01*
X44085966Y-18552260D01*
X44066431Y-18523024D01*
X44037493Y-18479714D01*
X44030601Y-18469399D01*
X44020285Y-18462506D01*
X43958057Y-18420927D01*
X43958055Y-18420926D01*
X43947740Y-18414034D01*
X43935092Y-18411518D01*
X43880741Y-18400706D01*
X43880732Y-18400705D01*
X43874674Y-18399500D01*
X42125326Y-18399500D01*
X42119268Y-18400704D01*
X42119258Y-18400706D01*
X42064430Y-18411613D01*
X42064429Y-18411613D01*
X42052260Y-18414034D01*
X42041946Y-18420925D01*
X42041942Y-18420927D01*
X41979714Y-18462506D01*
X41979711Y-18462508D01*
X41969399Y-18469399D01*
X41962508Y-18479711D01*
X41962506Y-18479714D01*
X41920927Y-18541942D01*
X41920925Y-18541946D01*
X41914034Y-18552260D01*
X41911613Y-18564429D01*
X41911613Y-18564430D01*
X41900706Y-18619258D01*
X41900704Y-18619268D01*
X41899500Y-18625326D01*
X41899500Y-18631513D01*
X41899500Y-18828500D01*
X41882619Y-18891500D01*
X41836500Y-18937619D01*
X41773500Y-18954500D01*
X33234279Y-18954500D01*
X33177076Y-18940767D01*
X33132343Y-18902561D01*
X33109830Y-18848211D01*
X33114446Y-18789564D01*
X33145184Y-18739405D01*
X33647404Y-18237185D01*
X34342000Y-17542589D01*
X34372536Y-17520120D01*
X34412240Y-17499283D01*
X34530483Y-17394530D01*
X34620220Y-17264523D01*
X34676237Y-17116818D01*
X34695278Y-16960000D01*
X39354785Y-16960000D01*
X39355322Y-16965795D01*
X39372659Y-17152901D01*
X39373603Y-17163083D01*
X39375195Y-17168681D01*
X39375196Y-17168682D01*
X39426999Y-17350750D01*
X39429418Y-17359250D01*
X39432009Y-17364454D01*
X39432012Y-17364461D01*
X39509520Y-17520118D01*
X39520327Y-17541821D01*
X39523835Y-17546467D01*
X39523838Y-17546471D01*
X39639723Y-17699928D01*
X39639727Y-17699932D01*
X39643236Y-17704579D01*
X39647538Y-17708501D01*
X39647541Y-17708504D01*
X39708077Y-17763689D01*
X39793959Y-17841981D01*
X39967363Y-17949348D01*
X40157544Y-18023024D01*
X40358024Y-18060500D01*
X40556148Y-18060500D01*
X40561976Y-18060500D01*
X40762456Y-18023024D01*
X40952637Y-17949348D01*
X41126041Y-17841981D01*
X41276764Y-17704579D01*
X41399673Y-17541821D01*
X41490582Y-17359250D01*
X41546397Y-17163083D01*
X41565215Y-16960000D01*
X41894785Y-16960000D01*
X41895322Y-16965795D01*
X41912659Y-17152901D01*
X41913603Y-17163083D01*
X41915195Y-17168681D01*
X41915196Y-17168682D01*
X41966999Y-17350750D01*
X41969418Y-17359250D01*
X41972009Y-17364454D01*
X41972012Y-17364461D01*
X42049520Y-17520118D01*
X42060327Y-17541821D01*
X42063835Y-17546467D01*
X42063838Y-17546471D01*
X42179723Y-17699928D01*
X42179727Y-17699932D01*
X42183236Y-17704579D01*
X42187538Y-17708501D01*
X42187541Y-17708504D01*
X42248077Y-17763689D01*
X42333959Y-17841981D01*
X42507363Y-17949348D01*
X42697544Y-18023024D01*
X42898024Y-18060500D01*
X43096148Y-18060500D01*
X43101976Y-18060500D01*
X43302456Y-18023024D01*
X43492637Y-17949348D01*
X43666041Y-17841981D01*
X43816764Y-17704579D01*
X43939673Y-17541821D01*
X44030582Y-17359250D01*
X44074916Y-17203434D01*
X47006751Y-17203434D01*
X47017840Y-17206000D01*
X48069410Y-17206000D01*
X48082493Y-17202493D01*
X48086000Y-17189410D01*
X48086000Y-15190590D01*
X48082493Y-15177506D01*
X48069410Y-15174000D01*
X47017840Y-15174000D01*
X47006751Y-15176565D01*
X47006986Y-15187943D01*
X47049900Y-15357408D01*
X47053270Y-15367223D01*
X47139488Y-15563778D01*
X47144431Y-15572913D01*
X47261822Y-15752593D01*
X47268210Y-15760799D01*
X47413567Y-15918700D01*
X47421211Y-15925737D01*
X47590588Y-16057568D01*
X47599285Y-16063250D01*
X47628733Y-16079187D01*
X47677004Y-16125503D01*
X47694763Y-16190000D01*
X47677004Y-16254497D01*
X47628733Y-16300813D01*
X47599285Y-16316749D01*
X47590588Y-16322431D01*
X47421211Y-16454262D01*
X47413567Y-16461299D01*
X47268210Y-16619200D01*
X47261822Y-16627406D01*
X47144431Y-16807086D01*
X47139488Y-16816221D01*
X47053270Y-17012776D01*
X47049900Y-17022591D01*
X47006986Y-17192056D01*
X47006751Y-17203434D01*
X44074916Y-17203434D01*
X44086397Y-17163083D01*
X44105215Y-16960000D01*
X44086397Y-16756917D01*
X44030582Y-16560750D01*
X44016138Y-16531743D01*
X43960854Y-16420717D01*
X43939673Y-16378179D01*
X43936161Y-16373528D01*
X43820276Y-16220071D01*
X43820273Y-16220067D01*
X43816764Y-16215421D01*
X43812461Y-16211498D01*
X43812458Y-16211495D01*
X43670343Y-16081941D01*
X43666041Y-16078019D01*
X43588478Y-16029994D01*
X43497596Y-15973722D01*
X43497592Y-15973720D01*
X43492637Y-15970652D01*
X43487206Y-15968548D01*
X43487202Y-15968546D01*
X43307882Y-15899078D01*
X43307881Y-15899077D01*
X43302456Y-15896976D01*
X43296737Y-15895907D01*
X43296734Y-15895906D01*
X43107702Y-15860570D01*
X43107698Y-15860569D01*
X43101976Y-15859500D01*
X42898024Y-15859500D01*
X42892302Y-15860569D01*
X42892297Y-15860570D01*
X42703265Y-15895906D01*
X42703259Y-15895907D01*
X42697544Y-15896976D01*
X42692121Y-15899076D01*
X42692117Y-15899078D01*
X42512797Y-15968546D01*
X42512789Y-15968549D01*
X42507363Y-15970652D01*
X42502412Y-15973717D01*
X42502403Y-15973722D01*
X42338912Y-16074952D01*
X42333959Y-16078019D01*
X42329660Y-16081937D01*
X42329656Y-16081941D01*
X42187541Y-16211495D01*
X42187533Y-16211503D01*
X42183236Y-16215421D01*
X42179731Y-16220061D01*
X42179723Y-16220071D01*
X42063838Y-16373528D01*
X42063832Y-16373537D01*
X42060327Y-16378179D01*
X42057733Y-16383386D01*
X42057730Y-16383393D01*
X41972012Y-16555538D01*
X41972007Y-16555549D01*
X41969418Y-16560750D01*
X41967826Y-16566343D01*
X41967824Y-16566350D01*
X41915310Y-16750918D01*
X41913603Y-16756917D01*
X41894785Y-16960000D01*
X41565215Y-16960000D01*
X41546397Y-16756917D01*
X41490582Y-16560750D01*
X41476138Y-16531743D01*
X41420854Y-16420717D01*
X41399673Y-16378179D01*
X41396161Y-16373528D01*
X41280276Y-16220071D01*
X41280273Y-16220067D01*
X41276764Y-16215421D01*
X41272461Y-16211498D01*
X41272458Y-16211495D01*
X41130343Y-16081941D01*
X41126041Y-16078019D01*
X41048478Y-16029994D01*
X40957596Y-15973722D01*
X40957592Y-15973720D01*
X40952637Y-15970652D01*
X40947206Y-15968548D01*
X40947202Y-15968546D01*
X40767882Y-15899078D01*
X40767881Y-15899077D01*
X40762456Y-15896976D01*
X40756737Y-15895907D01*
X40756734Y-15895906D01*
X40567702Y-15860570D01*
X40567698Y-15860569D01*
X40561976Y-15859500D01*
X40358024Y-15859500D01*
X40352302Y-15860569D01*
X40352297Y-15860570D01*
X40163265Y-15895906D01*
X40163259Y-15895907D01*
X40157544Y-15896976D01*
X40152121Y-15899076D01*
X40152117Y-15899078D01*
X39972797Y-15968546D01*
X39972789Y-15968549D01*
X39967363Y-15970652D01*
X39962412Y-15973717D01*
X39962403Y-15973722D01*
X39798912Y-16074952D01*
X39793959Y-16078019D01*
X39789660Y-16081937D01*
X39789656Y-16081941D01*
X39647541Y-16211495D01*
X39647533Y-16211503D01*
X39643236Y-16215421D01*
X39639731Y-16220061D01*
X39639723Y-16220071D01*
X39523838Y-16373528D01*
X39523832Y-16373537D01*
X39520327Y-16378179D01*
X39517733Y-16383386D01*
X39517730Y-16383393D01*
X39432012Y-16555538D01*
X39432007Y-16555549D01*
X39429418Y-16560750D01*
X39427826Y-16566343D01*
X39427824Y-16566350D01*
X39375310Y-16750918D01*
X39373603Y-16756917D01*
X39354785Y-16960000D01*
X34695278Y-16960000D01*
X34676237Y-16803182D01*
X34620220Y-16655477D01*
X34530483Y-16525470D01*
X34468606Y-16470652D01*
X34417943Y-16425769D01*
X34417941Y-16425767D01*
X34412240Y-16420717D01*
X34405494Y-16417176D01*
X34405492Y-16417175D01*
X34295602Y-16359500D01*
X34272365Y-16347304D01*
X34264967Y-16345480D01*
X34264963Y-16345479D01*
X34126380Y-16311322D01*
X34126374Y-16311321D01*
X34118985Y-16309500D01*
X33961015Y-16309500D01*
X33953626Y-16311321D01*
X33953619Y-16311322D01*
X33815036Y-16345479D01*
X33815029Y-16345481D01*
X33807635Y-16347304D01*
X33800885Y-16350846D01*
X33800884Y-16350847D01*
X33674507Y-16417175D01*
X33674501Y-16417178D01*
X33667760Y-16420717D01*
X33662062Y-16425764D01*
X33662056Y-16425769D01*
X33555222Y-16520415D01*
X33555218Y-16520419D01*
X33549517Y-16525470D01*
X33545187Y-16531742D01*
X33545186Y-16531744D01*
X33465943Y-16646547D01*
X33451342Y-16664066D01*
X32277814Y-17837595D01*
X32236937Y-17864909D01*
X32188719Y-17874500D01*
X31736224Y-17874500D01*
X31677669Y-17860068D01*
X31632528Y-17820077D01*
X31611143Y-17763689D01*
X31618412Y-17703821D01*
X31627433Y-17680032D01*
X31636237Y-17656818D01*
X31655278Y-17500000D01*
X31636237Y-17343182D01*
X31580220Y-17195477D01*
X31522804Y-17112295D01*
X31506205Y-17078204D01*
X31500500Y-17040719D01*
X31500500Y-15046500D01*
X31517381Y-14983500D01*
X31563500Y-14937381D01*
X31626500Y-14920500D01*
X41941818Y-14920500D01*
X42008150Y-14939373D01*
X42054610Y-14990340D01*
X42057728Y-14996604D01*
X42057734Y-14996614D01*
X42060327Y-15001821D01*
X42063835Y-15006467D01*
X42063838Y-15006471D01*
X42179723Y-15159928D01*
X42179727Y-15159932D01*
X42183236Y-15164579D01*
X42187538Y-15168501D01*
X42187541Y-15168504D01*
X42255003Y-15230003D01*
X42333959Y-15301981D01*
X42507363Y-15409348D01*
X42697544Y-15483024D01*
X42898024Y-15520500D01*
X43096148Y-15520500D01*
X43101976Y-15520500D01*
X43302456Y-15483024D01*
X43492637Y-15409348D01*
X43666041Y-15301981D01*
X43816764Y-15164579D01*
X43939673Y-15001821D01*
X44030582Y-14819250D01*
X44074916Y-14663434D01*
X47006751Y-14663434D01*
X47017840Y-14666000D01*
X48069410Y-14666000D01*
X48082493Y-14662493D01*
X48086000Y-14649410D01*
X48086000Y-13599336D01*
X48083598Y-13588443D01*
X48072461Y-13587867D01*
X48010627Y-13598185D01*
X48000557Y-13600735D01*
X47797559Y-13670424D01*
X47788042Y-13674599D01*
X47599281Y-13776752D01*
X47590588Y-13782431D01*
X47421211Y-13914262D01*
X47413567Y-13921299D01*
X47268210Y-14079200D01*
X47261822Y-14087406D01*
X47144431Y-14267086D01*
X47139488Y-14276221D01*
X47053270Y-14472776D01*
X47049900Y-14482591D01*
X47006986Y-14652056D01*
X47006751Y-14663434D01*
X44074916Y-14663434D01*
X44086397Y-14623083D01*
X44105215Y-14420000D01*
X44086397Y-14216917D01*
X44030582Y-14020750D01*
X43939673Y-13838179D01*
X43936161Y-13833528D01*
X43820276Y-13680071D01*
X43820273Y-13680067D01*
X43816764Y-13675421D01*
X43812461Y-13671498D01*
X43812458Y-13671495D01*
X43709228Y-13577389D01*
X43666041Y-13538019D01*
X43544083Y-13462506D01*
X43497596Y-13433722D01*
X43497592Y-13433720D01*
X43492637Y-13430652D01*
X43487206Y-13428548D01*
X43487202Y-13428546D01*
X43307882Y-13359078D01*
X43307881Y-13359077D01*
X43302456Y-13356976D01*
X43296737Y-13355907D01*
X43296734Y-13355906D01*
X43107702Y-13320570D01*
X43107698Y-13320569D01*
X43101976Y-13319500D01*
X42898024Y-13319500D01*
X42892302Y-13320569D01*
X42892297Y-13320570D01*
X42703265Y-13355906D01*
X42703259Y-13355907D01*
X42697544Y-13356976D01*
X42692121Y-13359076D01*
X42692117Y-13359078D01*
X42512797Y-13428546D01*
X42512789Y-13428549D01*
X42507363Y-13430652D01*
X42502412Y-13433717D01*
X42502403Y-13433722D01*
X42338912Y-13534952D01*
X42333959Y-13538019D01*
X42329660Y-13541937D01*
X42329656Y-13541941D01*
X42187541Y-13671495D01*
X42187533Y-13671503D01*
X42183236Y-13675421D01*
X42179731Y-13680061D01*
X42179723Y-13680071D01*
X42063838Y-13833528D01*
X42063832Y-13833537D01*
X42060327Y-13838179D01*
X42057736Y-13843380D01*
X42057728Y-13843395D01*
X42054610Y-13849660D01*
X42008150Y-13900627D01*
X41941818Y-13919500D01*
X31356281Y-13919500D01*
X31308063Y-13909909D01*
X31267186Y-13882595D01*
X24196341Y-6811750D01*
X25063946Y-6811750D01*
X25068219Y-6820785D01*
X25071576Y-6824142D01*
X25215485Y-6942244D01*
X25225738Y-6949095D01*
X25389930Y-7036858D01*
X25401313Y-7041573D01*
X25579468Y-7095616D01*
X25591562Y-7098022D01*
X25776837Y-7116270D01*
X25789163Y-7116270D01*
X25974437Y-7098022D01*
X25986531Y-7095616D01*
X26164686Y-7041573D01*
X26176069Y-7036858D01*
X26340261Y-6949095D01*
X26350514Y-6942244D01*
X26494427Y-6824138D01*
X26497777Y-6820788D01*
X26502052Y-6811748D01*
X26495340Y-6800550D01*
X25794729Y-6099939D01*
X25782999Y-6093167D01*
X25771271Y-6099938D01*
X25070659Y-6800549D01*
X25063946Y-6811750D01*
X24196341Y-6811750D01*
X23535017Y-6150426D01*
X24775000Y-6150426D01*
X24775303Y-6156598D01*
X24788977Y-6295437D01*
X24791382Y-6307528D01*
X24799183Y-6333246D01*
X24805333Y-6343227D01*
X24815466Y-6337322D01*
X25412059Y-5740730D01*
X25418832Y-5728999D01*
X26147167Y-5728999D01*
X26153939Y-5740729D01*
X26750531Y-6337321D01*
X26760664Y-6343227D01*
X26766816Y-6333244D01*
X26774617Y-6307528D01*
X26777021Y-6295440D01*
X26790696Y-6156598D01*
X26791000Y-6150426D01*
X26791000Y-5307574D01*
X26790696Y-5301401D01*
X26777021Y-5162559D01*
X26774617Y-5150471D01*
X26766816Y-5124754D01*
X26760664Y-5114771D01*
X26750532Y-5120676D01*
X26153938Y-5717271D01*
X26147167Y-5728999D01*
X25418832Y-5728999D01*
X25412060Y-5717270D01*
X24815467Y-5120677D01*
X24805334Y-5114771D01*
X24799183Y-5124753D01*
X24791380Y-5150477D01*
X24788978Y-5162554D01*
X24775303Y-5301401D01*
X24775000Y-5307574D01*
X24775000Y-6150426D01*
X23535017Y-6150426D01*
X22112405Y-4727814D01*
X22085091Y-4686937D01*
X22076998Y-4646250D01*
X25063947Y-4646250D01*
X25070660Y-4657450D01*
X25771270Y-5358060D01*
X25782999Y-5364832D01*
X25794730Y-5358059D01*
X26495340Y-4657448D01*
X26502052Y-4646249D01*
X26497778Y-4637213D01*
X26494423Y-4633857D01*
X26350514Y-4515755D01*
X26340261Y-4508904D01*
X26176069Y-4421141D01*
X26164686Y-4416426D01*
X25986531Y-4362383D01*
X25974437Y-4359977D01*
X25789163Y-4341730D01*
X25776837Y-4341730D01*
X25591562Y-4359977D01*
X25579468Y-4362383D01*
X25401313Y-4416426D01*
X25389930Y-4421141D01*
X25225738Y-4508904D01*
X25215485Y-4515755D01*
X25071575Y-4633859D01*
X25068223Y-4637210D01*
X25063947Y-4646250D01*
X22076998Y-4646250D01*
X22075500Y-4638719D01*
X22075500Y-4208219D01*
X22082233Y-4171474D01*
X22081710Y-4171345D01*
X22083532Y-4163948D01*
X22086237Y-4156818D01*
X22105278Y-4000000D01*
X22086237Y-3843182D01*
X22030220Y-3695477D01*
X21940483Y-3565470D01*
X21889853Y-3520616D01*
X21827943Y-3465769D01*
X21827941Y-3465767D01*
X21822240Y-3460717D01*
X21815494Y-3457176D01*
X21815492Y-3457175D01*
X21747178Y-3421321D01*
X21682365Y-3387304D01*
X21674967Y-3385480D01*
X21674963Y-3385479D01*
X21536380Y-3351322D01*
X21536374Y-3351321D01*
X21528985Y-3349500D01*
X21371015Y-3349500D01*
X21363626Y-3351321D01*
X21363619Y-3351322D01*
X21225036Y-3385479D01*
X21225029Y-3385481D01*
X21217635Y-3387304D01*
X21210885Y-3390846D01*
X21210884Y-3390847D01*
X21084507Y-3457175D01*
X21084501Y-3457178D01*
X21077760Y-3460717D01*
X21072062Y-3465764D01*
X21072056Y-3465769D01*
X20965222Y-3560415D01*
X20965218Y-3560419D01*
X20959517Y-3565470D01*
X20955190Y-3571737D01*
X20955186Y-3571743D01*
X20874111Y-3689201D01*
X20874107Y-3689207D01*
X20869780Y-3695477D01*
X20867078Y-3702600D01*
X20867075Y-3702607D01*
X20816466Y-3836053D01*
X20816464Y-3836058D01*
X20813763Y-3843182D01*
X20794722Y-4000000D01*
X20813763Y-4156818D01*
X20816466Y-4163946D01*
X20818290Y-4171345D01*
X20817766Y-4171474D01*
X20824500Y-4208219D01*
X20824500Y-4872297D01*
X20823983Y-4883256D01*
X20822327Y-4890667D01*
X20822576Y-4898592D01*
X20822576Y-4898593D01*
X20824438Y-4957841D01*
X20824500Y-4961799D01*
X20824500Y-4989350D01*
X20824994Y-4993263D01*
X20824999Y-4993340D01*
X20825921Y-5005059D01*
X20827041Y-5040701D01*
X20827042Y-5040707D01*
X20827291Y-5048627D01*
X20829501Y-5056236D01*
X20829503Y-5056244D01*
X20832835Y-5067712D01*
X20836843Y-5087066D01*
X20838341Y-5098925D01*
X20838343Y-5098934D01*
X20839336Y-5106792D01*
X20842252Y-5114157D01*
X20842253Y-5114161D01*
X20855377Y-5147308D01*
X20859222Y-5158537D01*
X20869171Y-5192782D01*
X20869172Y-5192786D01*
X20871382Y-5200390D01*
X20875413Y-5207207D01*
X20875417Y-5207215D01*
X20881499Y-5217500D01*
X20890192Y-5235243D01*
X20894594Y-5246359D01*
X20894596Y-5246362D01*
X20897514Y-5253732D01*
X20902170Y-5260140D01*
X20902172Y-5260144D01*
X20923129Y-5288988D01*
X20929646Y-5298910D01*
X20947789Y-5329589D01*
X20947793Y-5329595D01*
X20951830Y-5336420D01*
X20957440Y-5342030D01*
X20965879Y-5350469D01*
X20978719Y-5365502D01*
X20990406Y-5381587D01*
X20996513Y-5386639D01*
X20996514Y-5386640D01*
X21023988Y-5409368D01*
X21032768Y-5417358D01*
X30462595Y-14847185D01*
X30489909Y-14888062D01*
X30499500Y-14936280D01*
X30499500Y-17040719D01*
X30493795Y-17078204D01*
X30477196Y-17112295D01*
X30424111Y-17189201D01*
X30424107Y-17189206D01*
X30419780Y-17195477D01*
X30417078Y-17202600D01*
X30417075Y-17202607D01*
X30366466Y-17336053D01*
X30366464Y-17336058D01*
X30363763Y-17343182D01*
X30344722Y-17500000D01*
X30363763Y-17656818D01*
X30366466Y-17663945D01*
X30366467Y-17663949D01*
X30381588Y-17703821D01*
X30388857Y-17763689D01*
X30367472Y-17820077D01*
X30322331Y-17860068D01*
X30263776Y-17874500D01*
X26061280Y-17874500D01*
X26013062Y-17864909D01*
X25972185Y-17837595D01*
X24878659Y-16744069D01*
X24864058Y-16726550D01*
X24784813Y-16611743D01*
X24784812Y-16611742D01*
X24780483Y-16605470D01*
X24662240Y-16500717D01*
X24655494Y-16497176D01*
X24655492Y-16497175D01*
X24581192Y-16458179D01*
X24522365Y-16427304D01*
X24514967Y-16425480D01*
X24514963Y-16425479D01*
X24376380Y-16391322D01*
X24376374Y-16391321D01*
X24368985Y-16389500D01*
X24211015Y-16389500D01*
X24203626Y-16391321D01*
X24203619Y-16391322D01*
X24065036Y-16425479D01*
X24065029Y-16425481D01*
X24057635Y-16427304D01*
X24050885Y-16430846D01*
X24050884Y-16430847D01*
X23924507Y-16497175D01*
X23924501Y-16497178D01*
X23917760Y-16500717D01*
X23912062Y-16505764D01*
X23912056Y-16505769D01*
X23805222Y-16600415D01*
X23805218Y-16600419D01*
X23799517Y-16605470D01*
X23795190Y-16611737D01*
X23795186Y-16611743D01*
X23714111Y-16729201D01*
X23714107Y-16729207D01*
X23709780Y-16735477D01*
X23707078Y-16742600D01*
X23707075Y-16742607D01*
X23656466Y-16876053D01*
X23656464Y-16876058D01*
X23653763Y-16883182D01*
X23634722Y-17040000D01*
X23653763Y-17196818D01*
X23656465Y-17203943D01*
X23656466Y-17203946D01*
X23707075Y-17337392D01*
X23707077Y-17337395D01*
X23709780Y-17344523D01*
X23714110Y-17350796D01*
X23714111Y-17350798D01*
X23793487Y-17465795D01*
X23799517Y-17474530D01*
X23917760Y-17579283D01*
X23957467Y-17600123D01*
X23988002Y-17622592D01*
X25104815Y-18739405D01*
X25135553Y-18789564D01*
X25140169Y-18848211D01*
X25117656Y-18902561D01*
X25072923Y-18940767D01*
X25015720Y-18954500D01*
X23751500Y-18954500D01*
X23688500Y-18937619D01*
X23642381Y-18891500D01*
X23625500Y-18828500D01*
X23625500Y-18223219D01*
X23632233Y-18186474D01*
X23631710Y-18186345D01*
X23633532Y-18178948D01*
X23636237Y-18171818D01*
X23655278Y-18015000D01*
X23636237Y-17858182D01*
X23580220Y-17710477D01*
X23490483Y-17580470D01*
X23392637Y-17493787D01*
X23377943Y-17480769D01*
X23377941Y-17480767D01*
X23372240Y-17475717D01*
X23332534Y-17454877D01*
X23301996Y-17432406D01*
X22709604Y-16840013D01*
X22682291Y-16799136D01*
X22672700Y-16750918D01*
X22672700Y-11689019D01*
X22679433Y-11652274D01*
X22678910Y-11652145D01*
X22680732Y-11644748D01*
X22683437Y-11637618D01*
X22702478Y-11480800D01*
X22683437Y-11323982D01*
X22627420Y-11176277D01*
X22537683Y-11046270D01*
X22419440Y-10941517D01*
X22412694Y-10937976D01*
X22412692Y-10937975D01*
X22344378Y-10902121D01*
X22279565Y-10868104D01*
X22272167Y-10866280D01*
X22272163Y-10866279D01*
X22133580Y-10832122D01*
X22133574Y-10832121D01*
X22126185Y-10830300D01*
X21968215Y-10830300D01*
X21960826Y-10832121D01*
X21960819Y-10832122D01*
X21822236Y-10866279D01*
X21822229Y-10866281D01*
X21814835Y-10868104D01*
X21808085Y-10871646D01*
X21808084Y-10871647D01*
X21681707Y-10937975D01*
X21681701Y-10937978D01*
X21674960Y-10941517D01*
X21669262Y-10946564D01*
X21669256Y-10946569D01*
X21562422Y-11041215D01*
X21562418Y-11041219D01*
X21556717Y-11046270D01*
X21552390Y-11052537D01*
X21552386Y-11052543D01*
X21471311Y-11170001D01*
X21471307Y-11170007D01*
X21466980Y-11176277D01*
X21464278Y-11183400D01*
X21464275Y-11183407D01*
X21413666Y-11316853D01*
X21413664Y-11316858D01*
X21410963Y-11323982D01*
X21391922Y-11480800D01*
X21410963Y-11637618D01*
X21413666Y-11644746D01*
X21415490Y-11652145D01*
X21414966Y-11652274D01*
X21421700Y-11689019D01*
X21421700Y-16984497D01*
X21421183Y-16995456D01*
X21419527Y-17002867D01*
X21419776Y-17010792D01*
X21419776Y-17010793D01*
X21421638Y-17070041D01*
X21421700Y-17073999D01*
X21421700Y-17101550D01*
X21422194Y-17105463D01*
X21422199Y-17105540D01*
X21423121Y-17117259D01*
X21424241Y-17152901D01*
X21424242Y-17152907D01*
X21424491Y-17160827D01*
X21426701Y-17168436D01*
X21426703Y-17168444D01*
X21430035Y-17179912D01*
X21434043Y-17199266D01*
X21435541Y-17211125D01*
X21435543Y-17211134D01*
X21436536Y-17218992D01*
X21439452Y-17226357D01*
X21439453Y-17226361D01*
X21452577Y-17259508D01*
X21456422Y-17270737D01*
X21466371Y-17304982D01*
X21466372Y-17304986D01*
X21468582Y-17312590D01*
X21472613Y-17319407D01*
X21472617Y-17319415D01*
X21478699Y-17329700D01*
X21487392Y-17347443D01*
X21491794Y-17358559D01*
X21491796Y-17358562D01*
X21494714Y-17365932D01*
X21499370Y-17372340D01*
X21499372Y-17372344D01*
X21510933Y-17388256D01*
X21519163Y-17399584D01*
X21520329Y-17401188D01*
X21526846Y-17411110D01*
X21544989Y-17441789D01*
X21544993Y-17441795D01*
X21549030Y-17448620D01*
X21554640Y-17454230D01*
X21563079Y-17462669D01*
X21575919Y-17477702D01*
X21582944Y-17487371D01*
X21587606Y-17493787D01*
X21593713Y-17498839D01*
X21593714Y-17498840D01*
X21621188Y-17521568D01*
X21629968Y-17529558D01*
X22337595Y-18237185D01*
X22364909Y-18278062D01*
X22374500Y-18326280D01*
X22374500Y-18828500D01*
X22357619Y-18891500D01*
X22311500Y-18937619D01*
X22248500Y-18954500D01*
X11969429Y-18954500D01*
X11913266Y-18941291D01*
X11868879Y-18904432D01*
X11820276Y-18840071D01*
X11820273Y-18840067D01*
X11816764Y-18835421D01*
X11812461Y-18831498D01*
X11812458Y-18831495D01*
X11670343Y-18701941D01*
X11666041Y-18698019D01*
X11543037Y-18621858D01*
X11497596Y-18593722D01*
X11497592Y-18593720D01*
X11492637Y-18590652D01*
X11487206Y-18588548D01*
X11487202Y-18588546D01*
X11307882Y-18519078D01*
X11307881Y-18519077D01*
X11302456Y-18516976D01*
X11296737Y-18515907D01*
X11296734Y-18515906D01*
X11107702Y-18480570D01*
X11107698Y-18480569D01*
X11101976Y-18479500D01*
X10898024Y-18479500D01*
X10892302Y-18480569D01*
X10892297Y-18480570D01*
X10703265Y-18515906D01*
X10703259Y-18515907D01*
X10697544Y-18516976D01*
X10692121Y-18519076D01*
X10692117Y-18519078D01*
X10512797Y-18588546D01*
X10512789Y-18588549D01*
X10507363Y-18590652D01*
X10502412Y-18593717D01*
X10502403Y-18593722D01*
X10338912Y-18694952D01*
X10333959Y-18698019D01*
X10329660Y-18701937D01*
X10329656Y-18701941D01*
X10187541Y-18831495D01*
X10187533Y-18831503D01*
X10183236Y-18835421D01*
X10179731Y-18840061D01*
X10179723Y-18840071D01*
X10063838Y-18993528D01*
X10063832Y-18993537D01*
X10060327Y-18998179D01*
X10057733Y-19003386D01*
X10057730Y-19003393D01*
X9972012Y-19175538D01*
X9972007Y-19175549D01*
X9969418Y-19180750D01*
X9967826Y-19186343D01*
X9967824Y-19186350D01*
X9915822Y-19369117D01*
X9913603Y-19376917D01*
X9913066Y-19382709D01*
X9913066Y-19382711D01*
X9908860Y-19428103D01*
X9894785Y-19580000D01*
X6680249Y-19580000D01*
X6644774Y-19508754D01*
X6599673Y-19418179D01*
X6572889Y-19382711D01*
X6480276Y-19260071D01*
X6480273Y-19260067D01*
X6476764Y-19255421D01*
X6472461Y-19251498D01*
X6472458Y-19251495D01*
X6330343Y-19121941D01*
X6326041Y-19118019D01*
X6189572Y-19033521D01*
X6157596Y-19013722D01*
X6157592Y-19013720D01*
X6152637Y-19010652D01*
X6147206Y-19008548D01*
X6147202Y-19008546D01*
X5967882Y-18939078D01*
X5967881Y-18939077D01*
X5962456Y-18936976D01*
X5956737Y-18935907D01*
X5956734Y-18935906D01*
X5767702Y-18900570D01*
X5767698Y-18900569D01*
X5761976Y-18899500D01*
X5558024Y-18899500D01*
X5552302Y-18900569D01*
X5552297Y-18900570D01*
X5363265Y-18935906D01*
X5363259Y-18935907D01*
X5357544Y-18936976D01*
X5352121Y-18939076D01*
X5352117Y-18939078D01*
X5172797Y-19008546D01*
X5172789Y-19008549D01*
X5167363Y-19010652D01*
X5162412Y-19013717D01*
X5162403Y-19013722D01*
X4998912Y-19114952D01*
X4993959Y-19118019D01*
X4989660Y-19121937D01*
X4989656Y-19121941D01*
X4847541Y-19251495D01*
X4847533Y-19251503D01*
X4843236Y-19255421D01*
X4839731Y-19260061D01*
X4839723Y-19260071D01*
X4723838Y-19413528D01*
X4723832Y-19413537D01*
X4720327Y-19418179D01*
X4717731Y-19423391D01*
X4717730Y-19423394D01*
X4716790Y-19425282D01*
X4716046Y-19426112D01*
X4714662Y-19428349D01*
X4714265Y-19428103D01*
X4672298Y-19475001D01*
X4608655Y-19495031D01*
X4543707Y-19479755D01*
X4495665Y-19433456D01*
X4478000Y-19369117D01*
X4478000Y-19104777D01*
X4477640Y-19098061D01*
X4472337Y-19048742D01*
X4468740Y-19033521D01*
X4423594Y-18912480D01*
X4415045Y-18896824D01*
X4338302Y-18794307D01*
X4325692Y-18781697D01*
X4223175Y-18704954D01*
X4207521Y-18696406D01*
X4100320Y-18656422D01*
X4049986Y-18621858D01*
X4021812Y-18567688D01*
X4022415Y-18506632D01*
X4051652Y-18453028D01*
X4191794Y-18300792D01*
X4198177Y-18292593D01*
X4315568Y-18112913D01*
X4320511Y-18103778D01*
X4406725Y-17907232D01*
X4409592Y-17898882D01*
X4441022Y-17849365D01*
X4491464Y-17819440D01*
X4549987Y-17815592D01*
X4603913Y-17838654D01*
X4641557Y-17883629D01*
X4711499Y-18024093D01*
X4720327Y-18041821D01*
X4723835Y-18046467D01*
X4723838Y-18046471D01*
X4839723Y-18199928D01*
X4839727Y-18199932D01*
X4843236Y-18204579D01*
X4847538Y-18208501D01*
X4847541Y-18208504D01*
X4863683Y-18223219D01*
X4993959Y-18341981D01*
X5167363Y-18449348D01*
X5357544Y-18523024D01*
X5558024Y-18560500D01*
X5756148Y-18560500D01*
X5761976Y-18560500D01*
X5962456Y-18523024D01*
X6152637Y-18449348D01*
X6326041Y-18341981D01*
X6476764Y-18204579D01*
X6599673Y-18041821D01*
X6690582Y-17859250D01*
X6746397Y-17663083D01*
X6765215Y-17460000D01*
X6746397Y-17256917D01*
X6690582Y-17060750D01*
X6683138Y-17045801D01*
X6680249Y-17040000D01*
X9894785Y-17040000D01*
X9900488Y-17101550D01*
X9912053Y-17226361D01*
X9913603Y-17243083D01*
X9915195Y-17248681D01*
X9915196Y-17248682D01*
X9967470Y-17432406D01*
X9969418Y-17439250D01*
X9972009Y-17444454D01*
X9972012Y-17444461D01*
X10053959Y-17609032D01*
X10060327Y-17621821D01*
X10063835Y-17626467D01*
X10063838Y-17626471D01*
X10179723Y-17779928D01*
X10179727Y-17779932D01*
X10183236Y-17784579D01*
X10187538Y-17788501D01*
X10187541Y-17788504D01*
X10259002Y-17853649D01*
X10333959Y-17921981D01*
X10471966Y-18007431D01*
X10496414Y-18022569D01*
X10507363Y-18029348D01*
X10697544Y-18103024D01*
X10898024Y-18140500D01*
X11096148Y-18140500D01*
X11101976Y-18140500D01*
X11302456Y-18103024D01*
X11492637Y-18029348D01*
X11666041Y-17921981D01*
X11816764Y-17784579D01*
X11939673Y-17621821D01*
X12030582Y-17439250D01*
X12086397Y-17243083D01*
X12105215Y-17040000D01*
X12434785Y-17040000D01*
X12440488Y-17101550D01*
X12452053Y-17226361D01*
X12453603Y-17243083D01*
X12455195Y-17248681D01*
X12455196Y-17248682D01*
X12507470Y-17432406D01*
X12509418Y-17439250D01*
X12512009Y-17444454D01*
X12512012Y-17444461D01*
X12593959Y-17609032D01*
X12600327Y-17621821D01*
X12603835Y-17626467D01*
X12603838Y-17626471D01*
X12719723Y-17779928D01*
X12719727Y-17779932D01*
X12723236Y-17784579D01*
X12727538Y-17788501D01*
X12727541Y-17788504D01*
X12799002Y-17853649D01*
X12873959Y-17921981D01*
X13011966Y-18007431D01*
X13036414Y-18022569D01*
X13047363Y-18029348D01*
X13237544Y-18103024D01*
X13438024Y-18140500D01*
X13636148Y-18140500D01*
X13641976Y-18140500D01*
X13842456Y-18103024D01*
X14032637Y-18029348D01*
X14206041Y-17921981D01*
X14356764Y-17784579D01*
X14479673Y-17621821D01*
X14570582Y-17439250D01*
X14626397Y-17243083D01*
X14645215Y-17040000D01*
X14645177Y-17039596D01*
X14654266Y-16993889D01*
X14681579Y-16953009D01*
X16387364Y-15247225D01*
X16395467Y-15239853D01*
X16401877Y-15235786D01*
X16444319Y-15190590D01*
X16447869Y-15186810D01*
X16450626Y-15183964D01*
X16458025Y-15176565D01*
X16470120Y-15164471D01*
X16472546Y-15161342D01*
X16472629Y-15161249D01*
X16480230Y-15152348D01*
X16510062Y-15120582D01*
X16519642Y-15103154D01*
X16530484Y-15086647D01*
X16542673Y-15070936D01*
X16559991Y-15030913D01*
X16565193Y-15020296D01*
X16586197Y-14982092D01*
X16591140Y-14962836D01*
X16597540Y-14944144D01*
X16605438Y-14925896D01*
X16612257Y-14882839D01*
X16614655Y-14871252D01*
X16625500Y-14829019D01*
X16625500Y-14809144D01*
X16627051Y-14789434D01*
X16630160Y-14769804D01*
X16626058Y-14726420D01*
X16625500Y-14714563D01*
X16625500Y-9708219D01*
X16632233Y-9671474D01*
X16631710Y-9671345D01*
X16633532Y-9663948D01*
X16636237Y-9656818D01*
X16655278Y-9500000D01*
X16636237Y-9343182D01*
X16580220Y-9195477D01*
X16490483Y-9065470D01*
X16372240Y-8960717D01*
X16365494Y-8957176D01*
X16365492Y-8957175D01*
X16297178Y-8921321D01*
X16232365Y-8887304D01*
X16224967Y-8885480D01*
X16224963Y-8885479D01*
X16086380Y-8851322D01*
X16086374Y-8851321D01*
X16078985Y-8849500D01*
X15921015Y-8849500D01*
X15913626Y-8851321D01*
X15913619Y-8851322D01*
X15775036Y-8885479D01*
X15775029Y-8885481D01*
X15767635Y-8887304D01*
X15760885Y-8890846D01*
X15760884Y-8890847D01*
X15634507Y-8957175D01*
X15634501Y-8957178D01*
X15627760Y-8960717D01*
X15622062Y-8965764D01*
X15622056Y-8965769D01*
X15515222Y-9060415D01*
X15515218Y-9060419D01*
X15509517Y-9065470D01*
X15505190Y-9071737D01*
X15505186Y-9071743D01*
X15424111Y-9189201D01*
X15424107Y-9189207D01*
X15419780Y-9195477D01*
X15417078Y-9202600D01*
X15417075Y-9202607D01*
X15366466Y-9336053D01*
X15366464Y-9336058D01*
X15363763Y-9343182D01*
X15344722Y-9500000D01*
X15363763Y-9656818D01*
X15366466Y-9663946D01*
X15368290Y-9671345D01*
X15367766Y-9671474D01*
X15374500Y-9708219D01*
X15374500Y-14438720D01*
X15364909Y-14486938D01*
X15337597Y-14527812D01*
X14279443Y-15585966D01*
X13928155Y-15937254D01*
X13876332Y-15968519D01*
X13815908Y-15972013D01*
X13647703Y-15940570D01*
X13647697Y-15940569D01*
X13641976Y-15939500D01*
X13438024Y-15939500D01*
X13432302Y-15940569D01*
X13432297Y-15940570D01*
X13243265Y-15975906D01*
X13243259Y-15975907D01*
X13237544Y-15976976D01*
X13232121Y-15979076D01*
X13232117Y-15979078D01*
X13052797Y-16048546D01*
X13052789Y-16048549D01*
X13047363Y-16050652D01*
X13042412Y-16053717D01*
X13042403Y-16053722D01*
X12878912Y-16154952D01*
X12873959Y-16158019D01*
X12869660Y-16161937D01*
X12869656Y-16161941D01*
X12727541Y-16291495D01*
X12727533Y-16291503D01*
X12723236Y-16295421D01*
X12719731Y-16300061D01*
X12719723Y-16300071D01*
X12603838Y-16453528D01*
X12603832Y-16453537D01*
X12600327Y-16458179D01*
X12597733Y-16463386D01*
X12597730Y-16463393D01*
X12512012Y-16635538D01*
X12512007Y-16635549D01*
X12509418Y-16640750D01*
X12507826Y-16646343D01*
X12507824Y-16646350D01*
X12455196Y-16831317D01*
X12453603Y-16836917D01*
X12453066Y-16842709D01*
X12453066Y-16842711D01*
X12449977Y-16876053D01*
X12434785Y-17040000D01*
X12105215Y-17040000D01*
X12086397Y-16836917D01*
X12030582Y-16640750D01*
X12019851Y-16619200D01*
X11960854Y-16500717D01*
X11939673Y-16458179D01*
X11919033Y-16430847D01*
X11820276Y-16300071D01*
X11820273Y-16300067D01*
X11816764Y-16295421D01*
X11812461Y-16291498D01*
X11812458Y-16291495D01*
X11709228Y-16197389D01*
X11666041Y-16158019D01*
X11538723Y-16079187D01*
X11497596Y-16053722D01*
X11497592Y-16053720D01*
X11492637Y-16050652D01*
X11487206Y-16048548D01*
X11487202Y-16048546D01*
X11307882Y-15979078D01*
X11307881Y-15979077D01*
X11302456Y-15976976D01*
X11296737Y-15975907D01*
X11296734Y-15975906D01*
X11107702Y-15940570D01*
X11107698Y-15940569D01*
X11101976Y-15939500D01*
X10898024Y-15939500D01*
X10892302Y-15940569D01*
X10892297Y-15940570D01*
X10703265Y-15975906D01*
X10703259Y-15975907D01*
X10697544Y-15976976D01*
X10692121Y-15979076D01*
X10692117Y-15979078D01*
X10512797Y-16048546D01*
X10512789Y-16048549D01*
X10507363Y-16050652D01*
X10502412Y-16053717D01*
X10502403Y-16053722D01*
X10338912Y-16154952D01*
X10333959Y-16158019D01*
X10329660Y-16161937D01*
X10329656Y-16161941D01*
X10187541Y-16291495D01*
X10187533Y-16291503D01*
X10183236Y-16295421D01*
X10179731Y-16300061D01*
X10179723Y-16300071D01*
X10063838Y-16453528D01*
X10063832Y-16453537D01*
X10060327Y-16458179D01*
X10057733Y-16463386D01*
X10057730Y-16463393D01*
X9972012Y-16635538D01*
X9972007Y-16635549D01*
X9969418Y-16640750D01*
X9967826Y-16646343D01*
X9967824Y-16646350D01*
X9915196Y-16831317D01*
X9913603Y-16836917D01*
X9913066Y-16842709D01*
X9913066Y-16842711D01*
X9909977Y-16876053D01*
X9894785Y-17040000D01*
X6680249Y-17040000D01*
X6636646Y-16952431D01*
X6599673Y-16878179D01*
X6572889Y-16842711D01*
X6480276Y-16720071D01*
X6480273Y-16720067D01*
X6476764Y-16715421D01*
X6472461Y-16711498D01*
X6472458Y-16711495D01*
X6369228Y-16617389D01*
X6326041Y-16578019D01*
X6201194Y-16500717D01*
X6157596Y-16473722D01*
X6157592Y-16473720D01*
X6152637Y-16470652D01*
X6147206Y-16468548D01*
X6147202Y-16468546D01*
X5967882Y-16399078D01*
X5967881Y-16399077D01*
X5962456Y-16396976D01*
X5956737Y-16395907D01*
X5956734Y-16395906D01*
X5767702Y-16360570D01*
X5767698Y-16360569D01*
X5761976Y-16359500D01*
X5558024Y-16359500D01*
X5552302Y-16360569D01*
X5552297Y-16360570D01*
X5363265Y-16395906D01*
X5363259Y-16395907D01*
X5357544Y-16396976D01*
X5352121Y-16399076D01*
X5352117Y-16399078D01*
X5172797Y-16468546D01*
X5172789Y-16468549D01*
X5167363Y-16470652D01*
X5162412Y-16473717D01*
X5162403Y-16473722D01*
X5021849Y-16560750D01*
X4993959Y-16578019D01*
X4989660Y-16581937D01*
X4989656Y-16581941D01*
X4847541Y-16711495D01*
X4847533Y-16711503D01*
X4843236Y-16715421D01*
X4839731Y-16720061D01*
X4839723Y-16720071D01*
X4723838Y-16873528D01*
X4723832Y-16873537D01*
X4720327Y-16878179D01*
X4717733Y-16883386D01*
X4717730Y-16883393D01*
X4641557Y-17036370D01*
X4603913Y-17081345D01*
X4549988Y-17104407D01*
X4491465Y-17100559D01*
X4441024Y-17070636D01*
X4409593Y-17021119D01*
X4406727Y-17012771D01*
X4320511Y-16816221D01*
X4315568Y-16807086D01*
X4198177Y-16627406D01*
X4191789Y-16619200D01*
X4046432Y-16461299D01*
X4038788Y-16454262D01*
X3869411Y-16322431D01*
X3860718Y-16316752D01*
X3831267Y-16300814D01*
X3782995Y-16254498D01*
X3765236Y-16190000D01*
X3782995Y-16125502D01*
X3831267Y-16079186D01*
X3860718Y-16063247D01*
X3869411Y-16057568D01*
X4038788Y-15925737D01*
X4046432Y-15918700D01*
X4191789Y-15760799D01*
X4198177Y-15752593D01*
X4315568Y-15572913D01*
X4320511Y-15563778D01*
X4406725Y-15367232D01*
X4409592Y-15358882D01*
X4441022Y-15309365D01*
X4491464Y-15279440D01*
X4549987Y-15275592D01*
X4603913Y-15298654D01*
X4641557Y-15343629D01*
X4711499Y-15484093D01*
X4720327Y-15501821D01*
X4723835Y-15506467D01*
X4723838Y-15506471D01*
X4839723Y-15659928D01*
X4839727Y-15659932D01*
X4843236Y-15664579D01*
X4847538Y-15668501D01*
X4847541Y-15668504D01*
X4934684Y-15747945D01*
X4993959Y-15801981D01*
X5167363Y-15909348D01*
X5357544Y-15983024D01*
X5558024Y-16020500D01*
X5756148Y-16020500D01*
X5761976Y-16020500D01*
X5962456Y-15983024D01*
X6152637Y-15909348D01*
X6326041Y-15801981D01*
X6476764Y-15664579D01*
X6599673Y-15501821D01*
X6662984Y-15374674D01*
X9899500Y-15374674D01*
X9900705Y-15380732D01*
X9900706Y-15380741D01*
X9905786Y-15406277D01*
X9914034Y-15447740D01*
X9920926Y-15458055D01*
X9920927Y-15458057D01*
X9950169Y-15501821D01*
X9969399Y-15530601D01*
X10052260Y-15585966D01*
X10125326Y-15600500D01*
X11868487Y-15600500D01*
X11874674Y-15600500D01*
X11947740Y-15585966D01*
X12030601Y-15530601D01*
X12085966Y-15447740D01*
X12100500Y-15374674D01*
X12100500Y-13625326D01*
X12085966Y-13552260D01*
X12030601Y-13469399D01*
X11977206Y-13433722D01*
X11958057Y-13420927D01*
X11958055Y-13420926D01*
X11947740Y-13414034D01*
X11935092Y-13411518D01*
X11880741Y-13400706D01*
X11880732Y-13400705D01*
X11874674Y-13399500D01*
X10125326Y-13399500D01*
X10119268Y-13400704D01*
X10119258Y-13400706D01*
X10064430Y-13411613D01*
X10064429Y-13411613D01*
X10052260Y-13414034D01*
X10041946Y-13420925D01*
X10041942Y-13420927D01*
X9979714Y-13462506D01*
X9979711Y-13462508D01*
X9969399Y-13469399D01*
X9962508Y-13479711D01*
X9962506Y-13479714D01*
X9920927Y-13541942D01*
X9920925Y-13541946D01*
X9914034Y-13552260D01*
X9911613Y-13564429D01*
X9911613Y-13564430D01*
X9900706Y-13619258D01*
X9900704Y-13619268D01*
X9899500Y-13625326D01*
X9899500Y-15374674D01*
X6662984Y-15374674D01*
X6690582Y-15319250D01*
X6746397Y-15123083D01*
X6765215Y-14920000D01*
X6746397Y-14716917D01*
X6690582Y-14520750D01*
X6666691Y-14472771D01*
X6602269Y-14343393D01*
X6599673Y-14338179D01*
X6512476Y-14222711D01*
X6480276Y-14180071D01*
X6480273Y-14180067D01*
X6476764Y-14175421D01*
X6472461Y-14171498D01*
X6472458Y-14171495D01*
X6330343Y-14041941D01*
X6326041Y-14038019D01*
X6248478Y-13989994D01*
X6157596Y-13933722D01*
X6157592Y-13933720D01*
X6152637Y-13930652D01*
X6147206Y-13928548D01*
X6147202Y-13928546D01*
X5967882Y-13859078D01*
X5967881Y-13859077D01*
X5962456Y-13856976D01*
X5956737Y-13855907D01*
X5956734Y-13855906D01*
X5767702Y-13820570D01*
X5767698Y-13820569D01*
X5761976Y-13819500D01*
X5558024Y-13819500D01*
X5552302Y-13820569D01*
X5552297Y-13820570D01*
X5363265Y-13855906D01*
X5363259Y-13855907D01*
X5357544Y-13856976D01*
X5352121Y-13859076D01*
X5352117Y-13859078D01*
X5172797Y-13928546D01*
X5172789Y-13928549D01*
X5167363Y-13930652D01*
X5162412Y-13933717D01*
X5162403Y-13933722D01*
X5021849Y-14020750D01*
X4993959Y-14038019D01*
X4989660Y-14041937D01*
X4989656Y-14041941D01*
X4847541Y-14171495D01*
X4847533Y-14171503D01*
X4843236Y-14175421D01*
X4839731Y-14180061D01*
X4839723Y-14180071D01*
X4723838Y-14333528D01*
X4723832Y-14333537D01*
X4720327Y-14338179D01*
X4717733Y-14343386D01*
X4717730Y-14343393D01*
X4641557Y-14496370D01*
X4603913Y-14541345D01*
X4549988Y-14564407D01*
X4491465Y-14560559D01*
X4441024Y-14530636D01*
X4409593Y-14481119D01*
X4406727Y-14472771D01*
X4320511Y-14276221D01*
X4315568Y-14267086D01*
X4198177Y-14087406D01*
X4191789Y-14079200D01*
X4046432Y-13921299D01*
X4038788Y-13914262D01*
X3869411Y-13782431D01*
X3860718Y-13776752D01*
X3671957Y-13674599D01*
X3662440Y-13670424D01*
X3459442Y-13600735D01*
X3449372Y-13598185D01*
X3387538Y-13587867D01*
X3376401Y-13588443D01*
X3374000Y-13599336D01*
X3374000Y-21341410D01*
X2866000Y-21341410D01*
X2866000Y-20270590D01*
X2862493Y-20257506D01*
X2849410Y-20254000D01*
X1778590Y-20254000D01*
X1765506Y-20257506D01*
X1762000Y-20270590D01*
X1762000Y-20895223D01*
X25500Y-20895223D01*
X25500Y-19729410D01*
X1762000Y-19729410D01*
X1765506Y-19742493D01*
X1778590Y-19746000D01*
X2849410Y-19746000D01*
X2862493Y-19742493D01*
X2866000Y-19729410D01*
X2866000Y-17730590D01*
X2862493Y-17717506D01*
X2849410Y-17714000D01*
X1797840Y-17714000D01*
X1786751Y-17716565D01*
X1786986Y-17727943D01*
X1829900Y-17897408D01*
X1833270Y-17907223D01*
X1919488Y-18103778D01*
X1924431Y-18112913D01*
X2041822Y-18292593D01*
X2048210Y-18300799D01*
X2188347Y-18453029D01*
X2217584Y-18506632D01*
X2218187Y-18567688D01*
X2190013Y-18621858D01*
X2139679Y-18656421D01*
X2032484Y-18696403D01*
X2016824Y-18704954D01*
X1914307Y-18781697D01*
X1901697Y-18794307D01*
X1824954Y-18896824D01*
X1816405Y-18912480D01*
X1771259Y-19033521D01*
X1767662Y-19048742D01*
X1762359Y-19098061D01*
X1762000Y-19104777D01*
X1762000Y-19729410D01*
X25500Y-19729410D01*
X25500Y-17203434D01*
X1786751Y-17203434D01*
X1797840Y-17206000D01*
X2849410Y-17206000D01*
X2862493Y-17202493D01*
X2866000Y-17189410D01*
X2866000Y-15190590D01*
X2862493Y-15177506D01*
X2849410Y-15174000D01*
X1797840Y-15174000D01*
X1786751Y-15176565D01*
X1786986Y-15187943D01*
X1829900Y-15357408D01*
X1833270Y-15367223D01*
X1919488Y-15563778D01*
X1924431Y-15572913D01*
X2041822Y-15752593D01*
X2048210Y-15760799D01*
X2193567Y-15918700D01*
X2201211Y-15925737D01*
X2370588Y-16057568D01*
X2379285Y-16063250D01*
X2408733Y-16079187D01*
X2457004Y-16125503D01*
X2474763Y-16190000D01*
X2457004Y-16254497D01*
X2408733Y-16300813D01*
X2379285Y-16316749D01*
X2370588Y-16322431D01*
X2201211Y-16454262D01*
X2193567Y-16461299D01*
X2048210Y-16619200D01*
X2041822Y-16627406D01*
X1924431Y-16807086D01*
X1919488Y-16816221D01*
X1833270Y-17012776D01*
X1829900Y-17022591D01*
X1786986Y-17192056D01*
X1786751Y-17203434D01*
X25500Y-17203434D01*
X25500Y-14663434D01*
X1786751Y-14663434D01*
X1797840Y-14666000D01*
X2849410Y-14666000D01*
X2862493Y-14662493D01*
X2866000Y-14649410D01*
X2866000Y-13599336D01*
X2863598Y-13588443D01*
X2852461Y-13587867D01*
X2790627Y-13598185D01*
X2780557Y-13600735D01*
X2577559Y-13670424D01*
X2568042Y-13674599D01*
X2379281Y-13776752D01*
X2370588Y-13782431D01*
X2201211Y-13914262D01*
X2193567Y-13921299D01*
X2048210Y-14079200D01*
X2041822Y-14087406D01*
X1924431Y-14267086D01*
X1919488Y-14276221D01*
X1833270Y-14472776D01*
X1829900Y-14482591D01*
X1786986Y-14652056D01*
X1786751Y-14663434D01*
X25500Y-14663434D01*
X25500Y-9480663D01*
X2979164Y-9480663D01*
X2987615Y-9491952D01*
X3084314Y-9564341D01*
X3091876Y-9569200D01*
X3317239Y-9692257D01*
X3325399Y-9695984D01*
X3565996Y-9785722D01*
X3574592Y-9788246D01*
X3825510Y-9842830D01*
X3834391Y-9844106D01*
X4090512Y-9862425D01*
X4099488Y-9862425D01*
X4355608Y-9844106D01*
X4364489Y-9842830D01*
X4615407Y-9788246D01*
X4624003Y-9785722D01*
X4864600Y-9695984D01*
X4872760Y-9692257D01*
X5098124Y-9569200D01*
X5105680Y-9564344D01*
X5202384Y-9491951D01*
X5210834Y-9480663D01*
X5204076Y-9468286D01*
X4106729Y-8370939D01*
X4095000Y-8364167D01*
X4083270Y-8370939D01*
X2985922Y-9468286D01*
X2979164Y-9480663D01*
X25500Y-9480663D01*
X25500Y-8004488D01*
X2232575Y-8004488D01*
X2250893Y-8260608D01*
X2252169Y-8269489D01*
X2306753Y-8520407D01*
X2309277Y-8529003D01*
X2399015Y-8769600D01*
X2402742Y-8777760D01*
X2525799Y-9003123D01*
X2530658Y-9010685D01*
X2603046Y-9107383D01*
X2614335Y-9115834D01*
X2626714Y-9109074D01*
X3724060Y-8011729D01*
X3730832Y-8000000D01*
X4459167Y-8000000D01*
X4465939Y-8011729D01*
X5563286Y-9109076D01*
X5575663Y-9115834D01*
X5586951Y-9107384D01*
X5659344Y-9010680D01*
X5664200Y-9003124D01*
X5787257Y-8777760D01*
X5790984Y-8769600D01*
X5880722Y-8529003D01*
X5883246Y-8520407D01*
X5937830Y-8269489D01*
X5939106Y-8260608D01*
X5957425Y-8004488D01*
X5957425Y-8000000D01*
X6299551Y-8000000D01*
X6299939Y-8004930D01*
X6318928Y-8246214D01*
X6318929Y-8246222D01*
X6319317Y-8251148D01*
X6320471Y-8255956D01*
X6320472Y-8255960D01*
X6376971Y-8491298D01*
X6376972Y-8491303D01*
X6378127Y-8496111D01*
X6474534Y-8728859D01*
X6477119Y-8733078D01*
X6477120Y-8733079D01*
X6571629Y-8887304D01*
X6606164Y-8943659D01*
X6609379Y-8947423D01*
X6745997Y-9107383D01*
X6769776Y-9135224D01*
X6961341Y-9298836D01*
X7176141Y-9430466D01*
X7408889Y-9526873D01*
X7653852Y-9585683D01*
X7905000Y-9605449D01*
X8156148Y-9585683D01*
X8401111Y-9526873D01*
X8633859Y-9430466D01*
X8848659Y-9298836D01*
X9040224Y-9135224D01*
X9203836Y-8943659D01*
X9335466Y-8728859D01*
X9431873Y-8496111D01*
X9490683Y-8251148D01*
X9510449Y-8000000D01*
X9490683Y-7748852D01*
X9431873Y-7503889D01*
X9335466Y-7271141D01*
X9203836Y-7056341D01*
X9040224Y-6864776D01*
X8978139Y-6811750D01*
X16423946Y-6811750D01*
X16428219Y-6820785D01*
X16431576Y-6824142D01*
X16575485Y-6942244D01*
X16585738Y-6949095D01*
X16749930Y-7036858D01*
X16761313Y-7041573D01*
X16939468Y-7095616D01*
X16951562Y-7098022D01*
X17136837Y-7116270D01*
X17149163Y-7116270D01*
X17334437Y-7098022D01*
X17346531Y-7095616D01*
X17524686Y-7041573D01*
X17536069Y-7036858D01*
X17700261Y-6949095D01*
X17710514Y-6942244D01*
X17854427Y-6824138D01*
X17857777Y-6820788D01*
X17862052Y-6811748D01*
X17855340Y-6800550D01*
X17154729Y-6099939D01*
X17142999Y-6093167D01*
X17131271Y-6099938D01*
X16430659Y-6800549D01*
X16423946Y-6811750D01*
X8978139Y-6811750D01*
X8848659Y-6701164D01*
X8633859Y-6569534D01*
X8534750Y-6528482D01*
X8405684Y-6475021D01*
X8405681Y-6475020D01*
X8401111Y-6473127D01*
X8396303Y-6471972D01*
X8396298Y-6471971D01*
X8160960Y-6415472D01*
X8160956Y-6415471D01*
X8156148Y-6414317D01*
X8151222Y-6413929D01*
X8151214Y-6413928D01*
X7909930Y-6394939D01*
X7905000Y-6394551D01*
X7900070Y-6394939D01*
X7658785Y-6413928D01*
X7658775Y-6413929D01*
X7653852Y-6414317D01*
X7649045Y-6415471D01*
X7649039Y-6415472D01*
X7413701Y-6471971D01*
X7413692Y-6471973D01*
X7408889Y-6473127D01*
X7404321Y-6475018D01*
X7404315Y-6475021D01*
X7180715Y-6567639D01*
X7180710Y-6567641D01*
X7176141Y-6569534D01*
X7171926Y-6572116D01*
X7171920Y-6572120D01*
X6965558Y-6698579D01*
X6965550Y-6698584D01*
X6961341Y-6701164D01*
X6957580Y-6704375D01*
X6957576Y-6704379D01*
X6773538Y-6861562D01*
X6773531Y-6861568D01*
X6769776Y-6864776D01*
X6766568Y-6868531D01*
X6766562Y-6868538D01*
X6609379Y-7052576D01*
X6609375Y-7052580D01*
X6606164Y-7056341D01*
X6603584Y-7060550D01*
X6603579Y-7060558D01*
X6477120Y-7266920D01*
X6477116Y-7266926D01*
X6474534Y-7271141D01*
X6472641Y-7275710D01*
X6472639Y-7275715D01*
X6380021Y-7499315D01*
X6380018Y-7499321D01*
X6378127Y-7503889D01*
X6376973Y-7508692D01*
X6376971Y-7508701D01*
X6323720Y-7730510D01*
X6319317Y-7748852D01*
X6318929Y-7753775D01*
X6318928Y-7753785D01*
X6300474Y-7988270D01*
X6299551Y-8000000D01*
X5957425Y-8000000D01*
X5957425Y-7995512D01*
X5939106Y-7739391D01*
X5937830Y-7730510D01*
X5883246Y-7479592D01*
X5880722Y-7470996D01*
X5790984Y-7230399D01*
X5787257Y-7222239D01*
X5664200Y-6996876D01*
X5659341Y-6989314D01*
X5586952Y-6892615D01*
X5575663Y-6884164D01*
X5563286Y-6890922D01*
X4465939Y-7988270D01*
X4459167Y-8000000D01*
X3730832Y-8000000D01*
X3724060Y-7988270D01*
X2623482Y-6887692D01*
X2614159Y-6881700D01*
X2605784Y-6888957D01*
X2530659Y-6989314D01*
X2525799Y-6996876D01*
X2402742Y-7222239D01*
X2399015Y-7230399D01*
X2309277Y-7470996D01*
X2306753Y-7479592D01*
X2252169Y-7730510D01*
X2250893Y-7739391D01*
X2232575Y-7995512D01*
X2232575Y-8004488D01*
X25500Y-8004488D01*
X25500Y-6519159D01*
X2976700Y-6519159D01*
X2982692Y-6528482D01*
X4083270Y-7629060D01*
X4094999Y-7635832D01*
X4106729Y-7629060D01*
X5204074Y-6531714D01*
X5210834Y-6519335D01*
X5202383Y-6508046D01*
X5105685Y-6435658D01*
X5098123Y-6430799D01*
X4872760Y-6307742D01*
X4864600Y-6304015D01*
X4624003Y-6214277D01*
X4615407Y-6211753D01*
X4364489Y-6157169D01*
X4355608Y-6155893D01*
X4279169Y-6150426D01*
X16135000Y-6150426D01*
X16135303Y-6156598D01*
X16148977Y-6295437D01*
X16151382Y-6307528D01*
X16159183Y-6333246D01*
X16165333Y-6343227D01*
X16175466Y-6337322D01*
X16772059Y-5740730D01*
X16778832Y-5728999D01*
X17507167Y-5728999D01*
X17513939Y-5740729D01*
X18110531Y-6337321D01*
X18120664Y-6343227D01*
X18126816Y-6333244D01*
X18134617Y-6307528D01*
X18137021Y-6295440D01*
X18150696Y-6156598D01*
X18151000Y-6150426D01*
X18151000Y-5307574D01*
X18150696Y-5301401D01*
X18137021Y-5162559D01*
X18134617Y-5150471D01*
X18126816Y-5124754D01*
X18120664Y-5114771D01*
X18110532Y-5120676D01*
X17513938Y-5717271D01*
X17507167Y-5728999D01*
X16778832Y-5728999D01*
X16772060Y-5717270D01*
X16175467Y-5120677D01*
X16165334Y-5114771D01*
X16159183Y-5124753D01*
X16151380Y-5150477D01*
X16148978Y-5162554D01*
X16135303Y-5301401D01*
X16135000Y-5307574D01*
X16135000Y-6150426D01*
X4279169Y-6150426D01*
X4099488Y-6137575D01*
X4090512Y-6137575D01*
X3834391Y-6155893D01*
X3825510Y-6157169D01*
X3574592Y-6211753D01*
X3565996Y-6214277D01*
X3325399Y-6304015D01*
X3317239Y-6307742D01*
X3091876Y-6430799D01*
X3084314Y-6435659D01*
X2983957Y-6510784D01*
X2976700Y-6519159D01*
X25500Y-6519159D01*
X25500Y-4646250D01*
X16423947Y-4646250D01*
X16430660Y-4657450D01*
X17131270Y-5358060D01*
X17142999Y-5364832D01*
X17154730Y-5358059D01*
X17855340Y-4657448D01*
X17862052Y-4646249D01*
X17857778Y-4637213D01*
X17854423Y-4633857D01*
X17710514Y-4515755D01*
X17700261Y-4508904D01*
X17536069Y-4421141D01*
X17524686Y-4416426D01*
X17346531Y-4362383D01*
X17334437Y-4359977D01*
X17149163Y-4341730D01*
X17136837Y-4341730D01*
X16951562Y-4359977D01*
X16939468Y-4362383D01*
X16761313Y-4416426D01*
X16749930Y-4421141D01*
X16585738Y-4508904D01*
X16575485Y-4515755D01*
X16431575Y-4633859D01*
X16428223Y-4637210D01*
X16423947Y-4646250D01*
X25500Y-4646250D01*
X25500Y-3168093D01*
X16367602Y-3168093D01*
X16373185Y-3179897D01*
X16422861Y-3240427D01*
X16431572Y-3249138D01*
X16575485Y-3367244D01*
X16585738Y-3374095D01*
X16749930Y-3461858D01*
X16761313Y-3466573D01*
X16939468Y-3520616D01*
X16951562Y-3523022D01*
X17136837Y-3541270D01*
X17149163Y-3541270D01*
X17334437Y-3523022D01*
X17346531Y-3520616D01*
X17524686Y-3466573D01*
X17536069Y-3461858D01*
X17700261Y-3374095D01*
X17710514Y-3367244D01*
X17854423Y-3249142D01*
X17863139Y-3240426D01*
X17912814Y-3179895D01*
X17918396Y-3168094D01*
X17918395Y-3168093D01*
X25007602Y-3168093D01*
X25013185Y-3179897D01*
X25062861Y-3240427D01*
X25071572Y-3249138D01*
X25215485Y-3367244D01*
X25225738Y-3374095D01*
X25389930Y-3461858D01*
X25401313Y-3466573D01*
X25579468Y-3520616D01*
X25591562Y-3523022D01*
X25776837Y-3541270D01*
X25789163Y-3541270D01*
X25974437Y-3523022D01*
X25986531Y-3520616D01*
X26164686Y-3466573D01*
X26176069Y-3461858D01*
X26340261Y-3374095D01*
X26350514Y-3367244D01*
X26494423Y-3249142D01*
X26503139Y-3240426D01*
X26552814Y-3179895D01*
X26558396Y-3168094D01*
X26551681Y-3156891D01*
X25794729Y-2399939D01*
X25782999Y-2393167D01*
X25771271Y-2399938D01*
X25014315Y-3156893D01*
X25007602Y-3168093D01*
X17918395Y-3168093D01*
X17911681Y-3156891D01*
X17154729Y-2399939D01*
X17142999Y-2393167D01*
X17131271Y-2399938D01*
X16374315Y-3156893D01*
X16367602Y-3168093D01*
X25500Y-3168093D01*
X25500Y-2575424D01*
X16135000Y-2575424D01*
X16135303Y-2581600D01*
X16142145Y-2651075D01*
X16146435Y-2661802D01*
X16156557Y-2656231D01*
X16772059Y-2040730D01*
X16778832Y-2028999D01*
X17507167Y-2028999D01*
X17513939Y-2040729D01*
X18129438Y-2656228D01*
X18139563Y-2661801D01*
X18143853Y-2651074D01*
X18150696Y-2581598D01*
X18151000Y-2575426D01*
X18151000Y-2575424D01*
X24775000Y-2575424D01*
X24775303Y-2581600D01*
X24782145Y-2651075D01*
X24786435Y-2661802D01*
X24796557Y-2656231D01*
X25412059Y-2040730D01*
X25418832Y-2028999D01*
X26147167Y-2028999D01*
X26153939Y-2040729D01*
X26769438Y-2656228D01*
X26779563Y-2661801D01*
X26783853Y-2651074D01*
X26790696Y-2581598D01*
X26791000Y-2575426D01*
X26791000Y-1482574D01*
X26790696Y-1476401D01*
X26783853Y-1406924D01*
X26779563Y-1396196D01*
X26769440Y-1401768D01*
X26153938Y-2017271D01*
X26147167Y-2028999D01*
X25418832Y-2028999D01*
X25412060Y-2017270D01*
X24796558Y-1401768D01*
X24786435Y-1396196D01*
X24782145Y-1406925D01*
X24775303Y-1476399D01*
X24775000Y-1482576D01*
X24775000Y-2575424D01*
X18151000Y-2575424D01*
X18151000Y-1482574D01*
X18150696Y-1476401D01*
X18143853Y-1406924D01*
X18139563Y-1396196D01*
X18129440Y-1401768D01*
X17513938Y-2017271D01*
X17507167Y-2028999D01*
X16778832Y-2028999D01*
X16772060Y-2017270D01*
X16156558Y-1401768D01*
X16146435Y-1396196D01*
X16142145Y-1406925D01*
X16135303Y-1476399D01*
X16135000Y-1482576D01*
X16135000Y-2575424D01*
X25500Y-2575424D01*
X25500Y-2062753D01*
X35091Y-2014535D01*
X62405Y-1973658D01*
X1146158Y-889905D01*
X16367602Y-889905D01*
X16374316Y-901106D01*
X17131270Y-1658060D01*
X17142999Y-1664832D01*
X17154730Y-1658059D01*
X17911685Y-901103D01*
X17918396Y-889905D01*
X25007602Y-889905D01*
X25014316Y-901106D01*
X25771270Y-1658060D01*
X25782999Y-1664832D01*
X25794730Y-1658059D01*
X26551685Y-901103D01*
X26558396Y-889905D01*
X26552814Y-878103D01*
X26503139Y-817573D01*
X26494423Y-808857D01*
X26350514Y-690755D01*
X26340261Y-683904D01*
X26176069Y-596141D01*
X26164686Y-591426D01*
X25986531Y-537383D01*
X25974437Y-534977D01*
X25789163Y-516730D01*
X25776837Y-516730D01*
X25591562Y-534977D01*
X25579468Y-537383D01*
X25401313Y-591426D01*
X25389930Y-596141D01*
X25225738Y-683904D01*
X25215485Y-690755D01*
X25071576Y-808857D01*
X25062859Y-817574D01*
X25013184Y-878103D01*
X25007602Y-889905D01*
X17918396Y-889905D01*
X17912814Y-878103D01*
X17863139Y-817573D01*
X17854423Y-808857D01*
X17710514Y-690755D01*
X17700261Y-683904D01*
X17536069Y-596141D01*
X17524686Y-591426D01*
X17346531Y-537383D01*
X17334437Y-534977D01*
X17149163Y-516730D01*
X17136837Y-516730D01*
X16951562Y-534977D01*
X16939468Y-537383D01*
X16761313Y-591426D01*
X16749930Y-596141D01*
X16585738Y-683904D01*
X16575485Y-690755D01*
X16431576Y-808857D01*
X16422859Y-817574D01*
X16373184Y-878103D01*
X16367602Y-889905D01*
X1146158Y-889905D01*
X1973658Y-62405D01*
X2014535Y-35091D01*
X2062753Y-25500D01*
X26750247Y-25500D01*
X26798465Y-35091D01*
G37*
%TD.AperFunction*%
%TD*%
D19*
X0Y-23000000D02*
X0Y-2000000D01*
X46000000Y-23000000D02*
X8000000Y-23000000D01*
X26813000Y0D02*
X28813000Y-2000000D01*
X28813000Y-2000000D02*
X52000000Y-2000000D01*
X53000000Y-24000000D02*
X47000000Y-24000000D01*
X0Y-2000000D02*
X2000000Y0D01*
X1000000Y-24000000D02*
X0Y-23000000D01*
X2000000Y0D02*
X26813000Y0D01*
X7000000Y-24000000D02*
X1000000Y-24000000D01*
X54000000Y-23000000D02*
X53000000Y-24000000D01*
X8000000Y-23000000D02*
X7000000Y-24000000D01*
X47000000Y-24000000D02*
X46000000Y-23000000D01*
X52000000Y-2000000D02*
X54000000Y-4000000D01*
X54000000Y-4000000D02*
X54000000Y-23000000D01*
M02*
